<?xml version="1.0" encoding="utf-8"?>
<!-- Generator: Adobe Illustrator 15.0.0, SVG Export Plug-In . SVG Version: 6.00 Build 0)  -->
<!DOCTYPE svg PUBLIC "-//W3C//DTD SVG 1.1//EN" "http://www.w3.org/Graphics/SVG/1.1/DTD/svg11.dtd">
<svg version="1.1" id="Layer_1" xmlns="http://www.w3.org/2000/svg" xmlns:xlink="http://www.w3.org/1999/xlink" x="0px" y="0px"
	 width="1851.185px" height="1851.185px" viewBox="0 0 1851.185 1851.185" enable-background="new 0 0 1851.185 1851.185"
	 xml:space="preserve">
<path fill-rule="evenodd" clip-rule="evenodd" fill="#CECBC5" d="M476.323,206.31c8.634-7.813,5.978-23.039,13.355-31.283
	c5.751-6.427,21.043-12.888,29.642-17.618c20.628-11.347,39.353-20.122,63.386-30.319c11.426-4.849,24.07-11.607,33.744-12.702
	c11.458-1.295,24.466,8.29,35.138,6.274c8.545-1.614,14.065-20.939,21.478-25.45c10.671-6.494,29.636-9.043,46.742-12.971
	c16.379-3.761,33.013-8.197,47.782-10.992c155.029-29.332,328.363-7.39,447.836,35.735c96.324,34.77,179.628,83.882,248.97,140.875
	c141.151,116.011,255.654,272.454,301.146,486.869c24.845,117.1,21.608,249.538-0.606,357.09
	c-22.201,107.482-63.579,196.597-112.302,276.385c-49.691,81.374-111.977,149.298-183.735,207.849
	c-71.558,58.385-156.336,109.677-251.088,143.229c-101.03,35.775-218.206,56.081-345.077,48.156
	c-117.301-7.331-221.826-37.183-308.694-78.625c-175.487-83.723-310.403-211.616-400.033-383.8
	c-44.771-86.009-79.491-189.146-91.359-306.174c-12.957-127.761,5.162-247.728,35.848-345.817
	c56.254-179.823,164.244-324.177,305.215-427.411c9.625-7.049,20.938-17.677,29.6-19.617
	C454.031,203.591,462.452,209.781,476.323,206.31z M550.913,185.761c2.863,11.554,9.411,23.297,16.804,38.66
	c4.206,8.74,12.054,34.53,19.762,36.599c11.102,2.98,30.022-15.284,36.64-17.762c-7.566-28.543-22.241-49.677-33.546-74.321
	C573.302,170.658,562.698,178.776,550.913,185.761z M1255.679,167.165c-13.961,23.516-27.044,47.874-36.439,75.771
	c11.07,7.187,21.043,15.518,38.344,16.209c8.886-10.618,13.165-24.133,19.25-36.406c6.039-12.179,14.657-24.192,16.189-39.344
	C1281.916,176.587,1271.567,168.989,1255.679,167.165z M755.222,198.534c-35.31,7.848-79.787,9.75-87.174,40.813
	c-3.516,14.788,4.984,39.755,7.013,48.865c5.208,23.382,13.199,59.351,18.756,84.63c3.333,15.16,5.631,31.885,11.847,40.763
	c13.951,19.928,36.491,16.638,63.235,10.693c14.405-3.202,26.669-5.997,38.826-8.806c21.474-4.962,60.437-9.518,75.59-20.569
	c21.463-15.654,14.015-42.053,7.528-71.171c-3.938-17.682-7.235-30.92-10.992-47.783c-8.604-38.622-9.606-95.904-53.935-92.903
	C802.005,184.685,782.575,192.454,755.222,198.534z M969.045,236.114c-5.876,25.55-12.294,59.336-19.194,87.416
	c-2.388,9.718-10.554,27.22-9.087,44.198c2.448,28.317,25.255,32.498,49.797,37.977c29.395,6.562,50.035,10.784,78.356,16.381
	c13.653,2.698,25.062,9.994,39.178,8.19c37.205-4.751,40.158-65.009,47.96-99.014c3.26-14.201,6.323-27.474,10.107-43.219
	c3.457-14.377,10.259-31.007,8.046-46.176c-5.209-35.714-51.676-36.424-89.954-45.147c-21.729-4.953-56.126-17.47-78.294-13.382
	C978.871,188.334,974.735,211.372,969.045,236.114z M499.513,311.853c-19.881,15.621-41.663,32.895-60.035,47.253
	c-9.146,7.147-23.33,15.236-29.497,24.616c-17.617,26.796,4.266,50.613,18.425,68.633c18.791,23.915,37.242,48.276,56.5,71.845
	c9.458,11.575,20.347,27.896,31.677,32.351c25.396,9.987,38.191-6.658,54.615-19.135c21.821-16.577,46.017-34.704,66.95-51.397
	c10.469-8.349,24.604-19.065,28.373-30.594c7.632-23.344-9.584-41.182-21.155-55.574c-22.92-28.51-37.324-46.801-58.541-73.804
	c-13.436-17.099-26.272-38.367-51.734-34.936C520.922,293.021,508.976,304.417,499.513,311.853z M1258.888,322.131
	c-22.293,27.233-39.133,46.417-60.496,73.269c-11.665,14.664-24.561,30.215-26.166,40.55c-4.343,27.969,14.073,37.73,28.009,48.431
	c23.466,18.019,43.143,34.448,66.104,52.643c11.135,8.822,24.457,21.091,36.489,23.25c27.152,4.87,39.778-15.195,53.347-32.112
	c19.363-24.141,39.239-48.628,57.517-72.207c13.052-16.834,34.234-33.916,26.752-60.567c-5.271-18.778-45.354-43.9-60.167-55.766
	c-9.458-7.577-20.741-16.204-32.532-25.332c-15.353-11.886-28.287-27.559-50.507-23.959
	C1276.469,293.694,1269.565,309.089,1258.888,322.131z M283.447,552.378c-5.141,10.777-11.97,24.254-17.271,35.365
	c-9.312,19.519-31.442,54.425-32.502,72.688c-1.984,34.185,27.104,38.831,49.045,49.996c26.246,13.353,52.613,25.877,78.812,38.376
	c13.96,6.659,28.22,16.75,42.343,16.127c34.334-1.518,45.704-48.488,57.497-73.206c6.256-13.115,12.855-24.351,19.229-37.406
	c6.185-12.668,15.774-27.789,15.127-42.323c-1.284-28.813-29.096-36.679-48.963-45.996c-25.94-12.166-50.356-25.304-75.792-37.438
	c-16.278-7.766-33.667-19.642-52.341-15.92C297.014,516.95,292.099,534.243,283.447,552.378z M1465.338,534.902
	c-28.448,13.669-56.327,25.289-85.195,39.772c-13.144,6.595-28.441,15.527-32.393,29.677c-4.847,17.361,5.082,33.963,9.909,43.804
	c14.557,29.663,24.154,50.07,37.649,79.237c5.425,11.727,13.292,29.184,22.74,35.537c24.419,16.419,55.21-5.36,74.715-14.551
	c14.647-6.901,28.287-13.234,43.576-20.906c29.143-14.621,70.699-23.024,76.928-52.604c3.848-18.27-7.819-36.138-14.012-48.72
	c-10.593-21.525-28.472-56.953-38.628-78.217c-10.172-21.298-21.416-39.667-51.693-32.937
	C1492.325,518.687,1478.857,528.406,1465.338,534.902z M135.544,703.473c-5.925,10.667-10.893,26.306-9.149,41.198
	c26.652,6.606,51.038,15.576,82.376,17.298c2.45-12.602,8.908-25.73,6.17-40.137C189.611,714.529,164.179,707.332,135.544,703.473z
	 M1632.362,727.485c-1.942,14.198,4.585,26.794,6.827,39.867c30.289-0.745,61.181-9.183,86.649-17.798
	c-0.163-16.171-4.156-28.351-8.826-39.826C1686.005,712.969,1658.919,719.973,1632.362,727.485z M190.887,864.362
	c0.241,11.65-0.465,25.852-0.151,41.013c0.458,22.104-4.572,62.775,2.635,78.962c13.889,31.19,63.335,20.734,106.475,21.8
	c14.293,0.353,30.151,0.833,43.032,1.109c14.92,0.318,32.389,1.633,43.97-1.911c33.503-10.256,25.871-54.264,26.964-98.579
	c0.379-15.349,0.02-29.042,0.172-40.012c0.146-10.566,2.321-25.624-2.807-38.95c-12.429-32.298-59.593-24.357-100.538-24.925
	c-28.222-0.392-58.35-2.193-83.003,0.719C194.142,807.543,190.192,830.792,190.887,864.362z M1439.184,817.505
	c-12.842,12.142-10.236,31.793-10.858,55.236c-0.319,12.052-0.472,25.49-0.172,40.012c0.626,30.217-4.897,60.114,2.615,77.963
	c9.255,21.983,34.265,24.122,66.503,23.628c16.616-0.256,31.33,0.191,48.031,1.006c26.688,1.299,83.628,3.799,98.813-10.048
	c21.047-19.194,13.129-90.491,12.346-128.283c-0.284-13.761,2.326-30.736-2.91-43.949c-13.396-33.811-60.84-23.921-106.536-24.8
	c-31.365-0.604-63.158-2.718-85.003,0.761C1454.332,810.252,1444.082,812.875,1439.184,817.505z M920.905,954.266
	c23.294-0.945,46.112-21.448,44.996-48.942c-1.077-26.562-25.042-47.693-52.921-43.914
	C856.554,869.056,861.021,956.694,920.905,954.266z M347.12,1067.17c-28.24,13.609-55.809,25.823-84.195,39.752
	c-13.954,6.846-27.847,14.344-31.372,30.656c-4.562,21.105,7.824,39.329,14.095,52.72c4.879,10.419,10.579,21.703,16.721,34.661
	c8.184,17.264,21.807,55.971,34.401,67.302c16.939,15.239,35.658,7.609,53.988-1.118c10.185-4.851,21.149-6.587,29.787-10.618
	c6.726-3.143,15.231-9.834,24.705-14.515c8.969-4.436,17.699-9.658,25.725-13.536c17.439-8.432,41.552-14.58,52.451-27.092
	c17.634-20.244,5.134-43.488-4.304-62.924c-11.122-22.908-24.417-52.934-34.546-74.301c-10.068-21.24-20.691-48.268-53.858-40.894
	C375.234,1050.705,360.309,1060.814,347.12,1067.17z M1393.993,1098.501c-12.986,26.19-22.799,45.677-36.501,72.771
	c-7.402,14.638-14.141,26.889-11.107,43.239c3.537,19.061,20.598,26.697,38.737,35.206c30.819,14.452,60.877,29.415,88.913,43.168
	c12.098,5.933,31.234,19.102,48.383,18.002c32.752-2.103,45.285-47.806,57.497-73.206c6.612-13.751,13.058-25.843,20.167-40.427
	c6.24-12.8,17.127-29.317,14.023-47.3c-3.574-20.718-22.293-28.832-43.818-39.102c-30.075-14.349-54.479-26.757-82.853-40.293
	c-16.565-7.904-35.956-20.727-55.36-16.857C1407.678,1058.565,1403.167,1079.999,1393.993,1098.501z M480.751,1289.452
	c-10.369,12.927-19.342,25.809-27.269,35.572c-13.841,17.044-49.939,50.24-54.518,72.145c-6.458,30.892,16.357,42.459,31.153,55.366
	c22.607,19.718,43.304,34.73,66.125,53.643c11.141,9.23,23.641,20.308,39.426,20.188c23.896-0.184,34.003-19.61,46.286-34.966
	c20.165-25.212,38.677-47.971,57.517-72.206c8.116-10.441,22.879-25.249,25.187-39.53c4.188-25.916-13.247-36.261-29.029-49.409
	c-22.69-18.905-41.644-32.961-62.043-49.727c-14-11.507-27.625-28.896-50.548-25.958
	C502.395,1257.213,492.441,1274.876,480.751,1289.452z M1262.832,1285.256c-21.568,16.991-43.911,35.177-64.95,51.356
	c-10.723,8.243-24.475,18.649-27.373,30.573c-6.715,27.623,14.959,42.104,27.195,57.449c20.015,25.097,36.948,46.106,56.5,71.846
	c10.027,13.199,19.912,29.086,30.718,34.371c28.275,13.826,45.604-6.914,62.594-20.301c11.528-9.084,21.926-16.926,33.475-25.698
	c8.987-6.828,22.039-15.919,33.475-25.698c10.872-9.298,23.302-18.853,26.332-32.553c6.204-28.045-15.411-43.728-27.216-58.449
	c-21.129-26.353-38.737-48.259-58.541-73.804c-13.743-17.729-24.652-39.019-54.692-32.874
	C1285.196,1264.573,1273.046,1277.209,1262.832,1285.256z M327.944,1348.628c-8.593,6.749-17.209,12.835-29.538,22.616
	c-6.684,5.302-26.749,15.72-27.497,24.574c-0.7,8.288,17.085,31.366,24.657,31.497c5.128,0.087,11.301-8.047,16.748-12.35
	c5.965-4.715,11.356-8.188,16.748-12.35c7.541-5.823,30.384-18.342,30.434-27.636c0.025-4.674-18.032-28.451-23.616-29.518
	c-2.263-0.434-4.591,0.722-5.978,1.124C328.526,1346.983,328.826,1347.934,327.944,1348.628z M1539.864,1380.541
	c-10.085-8.461-24.066-23.484-35.552-26.269c-8.38,10.249-17.82,19.486-24.353,31.511c6.775,8.984,18.424,18.042,31.594,28.352
	c8.898,6.964,26.685,26.061,35.531,25.27c5.438-0.487,11.024-9.697,14.707-14.308c5.265-6.591,9.58-11.038,11.624-18.244
	C1564.252,1397.368,1551.801,1390.552,1539.864,1380.541z M888.034,1492.062c3.396-14.768,10.391-32.828,7.025-47.156
	c-7.174-30.547-48.812-32.143-76.833-39.417c-14.455-3.755-27.673-6.093-40.198-9.17c-12.697-3.12-26.509-9.156-40.219-10.169
	c-40.531-3-40.488,27.957-47.789,59.002c-6.458,27.46-14.141,56.201-20.297,82.438c-3.264,13.907-8.963,29.782-8.108,43.178
	c2.092,32.776,28.554,36.748,52.9,42.914c13.461,3.407,25.199,7.681,37.22,10.231c12.969,2.749,24.739,4.549,39.178,8.19
	c12.781,3.222,25.746,9.689,41.157,7.149c9.263-1.528,12.513-5.886,23.788-10.495
	C869.531,1588.993,877.747,1536.791,888.034,1492.062z M1021.265,1405.285c-17.87,3.816-53.986,8.484-67.654,17.404
	c-23.953,15.63-14.239,44.73-7.466,74.171c7.344,31.915,13.798,61.222,20.922,92.586c3.631,15.983,6.276,33.458,14.866,41.701
	c15.684,15.046,41.54,8.853,65.09,3.653c13.174-2.91,26.424-6.01,39.826-8.826c21.172-4.453,62.612-8.512,75.59-20.57
	c17.103-15.891,9.201-50.107,3.425-76.087c-3.304-14.866-8.423-31.777-11.95-45.763c-10.929-43.343-10.486-100.134-61.933-92.737
	C1066.687,1394.453,1047.75,1399.627,1021.265,1405.285z M898.138,1641.884c-5.157,6.884-4.151,18.457-4.398,29.098
	c-0.423,18.187,0.666,39.653,2.159,55.967c11.812,2.907,30.598,3.892,43.011,0.11c-1.163-27.303,4.256-60.439-2.738-83.962
	C925.183,1641.264,910.029,1639.505,898.138,1641.884z"/>
</svg>
