<?xml version="1.0" encoding="utf-8"?>
<!-- Generator: Adobe Illustrator 15.0.0, SVG Export Plug-In . SVG Version: 6.00 Build 0)  -->
<!DOCTYPE svg PUBLIC "-//W3C//DTD SVG 1.1//EN" "http://www.w3.org/Graphics/SVG/1.1/DTD/svg11.dtd">
<svg version="1.1" id="Layer_1" xmlns="http://www.w3.org/2000/svg" xmlns:xlink="http://www.w3.org/1999/xlink" x="0px" y="0px"
	 width="206px" height="206px" viewBox="0 0 206 206" enable-background="new 0 0 206 206" xml:space="preserve">
<rect x="43.076" y="137.926" fill="none" width="187.374" height="46.35"/>
<text transform="matrix(1 0 0 1.15 43.0767 153.0684)" stroke="#000000" stroke-width="0.2794" stroke-miterlimit="10" font-family="'BankGothicBT-Medium'" font-size="21.2708" letter-spacing="2">products</text>
<rect x="43.076" y="137.926" fill="none" width="187.374" height="46.35"/>
<text transform="matrix(1 0 0 1.15 43.0767 153.0684)" stroke="#000000" stroke-width="0.2794" stroke-miterlimit="10" font-family="'BankGothicBT-Medium'" font-size="21.2708" letter-spacing="2">products</text>
<polygon fill="#FFFFFF" points="101.358,103.271 100.9,101.405 102.29,100.076 104.135,100.614 104.592,102.478 103.202,103.808 "/>
<polygon fill="#FFFFFF" points="100.84,102.187 101.581,100.414 103.488,100.171 104.651,101.698 103.911,103.47 102.006,103.714 
	"/>
<g>
	<g>
		<polygon points="103.075,0.726 109.336,3.648 115.915,1.532 121.761,5.216 128.557,3.937 133.895,8.324 140.795,7.905 
			145.539,12.925 152.44,13.374 156.517,18.948 163.305,20.257 166.65,26.297 173.221,28.444 175.78,34.854 182.029,37.806 
			183.765,44.487 189.595,48.197 190.478,55.04 195.796,59.453 195.812,66.353 200.534,71.394 199.68,78.241 203.73,83.834 
			202.028,90.523 205.346,96.578 202.815,102.999 205.346,109.422 202.028,115.476 203.73,122.163 199.68,127.755 200.534,134.604 
			195.812,139.645 195.796,146.548 190.478,150.956 189.595,157.799 183.765,161.511 182.029,168.19 175.78,171.145 
			173.221,177.553 166.65,179.702 163.305,185.741 156.517,187.049 152.44,192.622 145.539,193.072 140.795,198.091 
			133.895,197.674 128.557,202.061 121.761,200.784 115.915,204.465 109.336,202.351 103.075,205.274 96.812,202.351 
			90.231,204.465 84.383,200.784 77.589,202.061 72.25,197.674 65.351,198.091 60.605,193.072 53.705,192.622 49.629,187.049 
			42.842,185.741 39.493,179.702 32.924,177.553 30.364,171.145 24.114,168.19 22.379,161.511 16.551,157.799 15.667,150.956 
			10.35,146.548 10.333,139.645 5.612,134.604 6.464,127.755 2.413,122.163 4.116,115.476 0.801,109.422 3.33,102.999 0.801,96.578 
			4.116,90.523 2.413,83.834 6.464,78.241 5.612,71.394 10.333,66.353 10.35,59.453 15.667,55.04 16.551,48.197 22.379,44.487 
			24.114,37.806 30.364,34.854 32.924,28.444 39.493,26.297 42.842,20.257 49.629,18.948 53.705,13.374 60.605,12.925 65.351,7.905 
			72.252,8.324 77.589,3.937 84.383,5.216 90.231,1.532 96.812,3.648 		"/>
		<path fill="#FFFFFF" d="M192.562,102.999c0,49.425-40.066,89.492-89.487,89.492c-49.424,0-89.49-40.067-89.49-89.492
			c0-49.421,40.065-89.489,89.49-89.489C152.495,13.51,192.562,53.578,192.562,102.999z"/>
		<path fill="none" stroke="#000000" stroke-width="1.6369" stroke-miterlimit="10" d="M190.375,102.999
			c0,48.217-39.087,87.304-87.3,87.304c-48.218,0-87.304-39.087-87.304-87.304c0-48.21,39.086-87.303,87.304-87.303
			C151.288,15.696,190.375,54.789,190.375,102.999z"/>
		<path fill="none" stroke="#FFFFFF" stroke-width="0.947" stroke-miterlimit="10" d="M195.876,102.999
			c0,51.257-41.55,92.805-92.801,92.805c-51.256,0-92.805-41.548-92.805-92.805c0-51.248,41.549-92.804,92.805-92.804
			C154.326,10.195,195.876,51.751,195.876,102.999z"/>
	</g>
	<g>
		<path fill="#C2B59B" d="M93.641,124.239c1.015-0.077,1.364,0.509,2.518,0.32c0.468,0.859,0.316,2.265,1.154,3.178
			C95.375,127.421,93.915,126.207,93.641,124.239"/>
		<path fill="#C2B59B" d="M89.15,126.596c1.809,4.301,2.902,5.623,6.433,6.689c-0.548,3.858,0.34,7.659,2.198,10.425
			c-0.468,0.149-2.259-1.276-2.746-1.358c-0.782,1.254,1.628,3.689,2.099,5.005c-2.024-0.302-2.455-2.201-4.394-2.583
			c-0.56-1.133-1.496-2.736-0.901-4.239c-1.367-2.027-3.191-4.813-2.689-7.898c0.882,1.158,0.94,3.122,2.364,3.732
			c-0.353-1.946-3.688-6.34-4.751-7.864c-0.919,6.504,2.077,15.68,4.508,20.509c-0.421,0.002-1.259-0.557-1.483-0.831
			c-0.869-1.159-0.554-2.169-1.867-5.035c-2.463-6.51-8.092-13.868-4.875-22.887c0.126-0.037,0.139,0.059,0.239,0.071
			C84.674,122.994,86.928,124.775,89.15,126.596 M133.581,141.029c-1.014,1.826-3,3.849-4.847,4.894
			c-1.017,0.574-3.266,1.724-5.395,1.978c-1.365,0.116-3.037,0.069-4.108-0.146c-5.76-1.175-9.33-4.561-11.489-9.501
			c-2.872-6.981-3.073-12.369-2.469-10.068c0.979,1.969,4.746,7.672,8.973,9.274c-2.433-2.275-4.359-3.156-7.377-11.665
			c-0.463-1.311-2.493-8.602,0.114-5.074c2.836,4.413-3.81-12.467,3.564,0.829c-0.646-3.461-2.552-7.584-3.646-9.754
			c-2.436-4.771-6.841-8.06-6.673-10.686c1.21,2.608,2.082,2.024,5.073,5.962c-0.263-2.928-1.358-6.166-2.891-7.83
			c-0.592-0.707-0.769-0.83-0.917-1.369c-0.123-0.424,0.091-1.568,1.425-2.07c-0.711,0-2.128,0.234-2.229,0.234
			c-9.006,0.998-14.741,0.626-22.582-0.142c-0.492-0.048-0.659-0.085-0.895-0.111c0.226,0.666,0.761,0.599,0.773,0.844
			c0,0.496-1.998,1.166-2.23,1.509c1.75-0.059,2.905-0.645,2.905-0.645s-1.333,1.004-2.984,3.91c0.92,0.06,4.322-0.875,5.817-1.848
			c-2.243,2.018-3.737,5.503-6.742,8.269c-0.499,0.782-0.954,1.185-1.332,1.516c-4.001,3.641-0.469,1.1,0.735,0.159
			c4.98-3.521,8.414-9.875,14.731-12.023c-7.092,4.322-8.252,16.341-14.274,21.357c-2.209,3.652-1.899,4.646-2.22,7.16
			c0.163,1.487-1.191,0.216-0.555,3.188c-0.13,0.13-0.692-0.534-1.025-0.477c-0.614,1.267,1.028,2.746,0.643,4.308
			c-0.509-0.006-1.031-1.55-1.506-1.611c-1.11,1.802,0.25,3.331,0.496,5.26c-1.09-0.665-1.147-1.379-2.293-1.984
			c-0.216,2.29,0.959,2.874,1.267,4.657c-1.554-2.326-1.883-3.011-3.224-5.537c-0.274-0.534-2.376-4.826-2.665-5.356
			c-0.251,0.411,0.896,3.518,0.978,3.913c0.183,0.85,0.457,1.516,0.799,2.172c0.463,0.94,0.892,1.905,1.036,2.885
			c-0.793-1.039-1.215-1.177-1.582-1.828c-0.403-0.718-1.003-1.43-1.147-1.288c0.407,0.521,0.508,1.326,0.692,2.077
			c-1.972-2.518-3.522-6.125-4.973-9.521c-1.125-4.802-2.903-10.977-2.445-17.199c-1.6,1.211-1.994,6.155-4.235,8.95
			c-0.291-0.459,0.321-1.848,0.603-5.251c0.092-2.779,0.217-4.227-0.434-5.048c-0.612-0.77-1.997,3.05-1.925,0.916
			c1.169-6.984,2.269-4.712,3.31-10.997c0.458-2.761-0.232-2.916-0.136-3.238c0.435-1.49,1.05-2.496,1.963-3.784
			c0.158-0.211,0.758-0.699,1.327-0.543c0.027-0.143,0.268,0.016,0.268-0.067c-2.642-1.317-4.14-1.92-5.785-3.786
			c-0.545-0.636-1.433-3.272-1.226-2.155c0.07,1.795-0.441,3.918-0.85,5.599c-0.227,0.894-0.725,3.585-0.749,4.111
			c-0.048,1.516,0.464,2.949,0.709,3.855c0.361,1.33,0.486,1.864,0.109,2.824c-0.287,0.52-1.26,3.935-1.43,5.626
			c-0.697,6.836,4.752,11.016,4.893,16.601c0.048,1.826-0.343,3.323-0.233,4.798c0.247,3.382,4.032,5.808,4.552,9.046
			c0.01,0.205-0.146,0.247-0.083,0.505c0.463,1.206,3.308,4.524,3.422,4.396c7.742,4.573,6.953,1.188,13.649,3.96
			c2.013,1.391,3.903,4.229,5.442,5.462c0.881,0.726,1.523,1.192,2.507,1.481c-0.31-0.236-0.727-0.719-0.809-0.875
			c-0.543-0.764-0.732-1.341-1.176-2.604c-0.264-0.731-1.017-3.25-1.742-4.381c-1.958-3.115-3.808-2.89-4.178-6.712
			c-0.045-0.603,0.133-1.568,0.311-2.371c0.679-4.695-1.202-9.917,0.342-14.418c2.042-4.095,4.269-7.997,6.513-11.901
			c1.467-4.603,4.777-9.591,8.129-12.318c0.091,0.881-1.422,2.745-2.176,3.377c-4.609,2.777-5.42,10.878-5.805,15.151
			c-5.395,5.115-3.548,17.146-0.651,23.441c1.265,4.063,2.663,6.538,2.663,9.5c0,0.61-0.041,2.861-0.208,3.452
			c-0.029,0.153-0.062,0.301-0.111,0.433c-0.009,0.033-0.024,0.087-0.058,0.126c-0.012,0.123-0.06,0.265-0.093,0.384
			c0,0.021,0,0.032,0,0.046c0,0.012,0,0.021,0,0.021c0.752,0.153,1.557,0.132,2.458-0.352c1.61-0.911,2.557-2.315,2.672-3.207
			c0.221-0.11,7.896,2.211,14.054,1.787c5.047,3.787,12.89,5.699,15.707,5.448c-11.77-2.419-22.921-11.947-20.62-27.222
			c-0.627,0.106-1.379,0.474-1.961,0.652c-3.129,0.239-3.673-2.083-4.387-4.262c-4.443-1.867-8.349-6.523-7.979-13.932
			c0.148-1.827,1.213-2.07,1.711-2.729c0.111,0.953-0.367,3.128-0.189,4.896c0.6,4.312,2.981,8.927,6.642,10.653
			c0.433-1.447-0.769-3.01-1.735-3.606c-0.293,0.01-0.202,0.405-0.573,0.319c-1.9-2.806-4.429-12.313-0.319-13.925
			c0.203,0.451,0.084,1.224,0.24,1.714c1.151-0.352,0.983-2.008,2.04-2.426c0.446,1.618,1.545,4.09,3.214,4.527
			c0.074-3.657-2.149-5.004-3.412-7.335c-2.964-0.521-4.915,3.619-7.184,5.317c0.497-3.548,2.84-6.508,6.459-7.133
			c-0.354-1.594-0.201-3.963,1.061-4.541c1.331,6.571,4.266,7.776,4.374,11.308c-0.251,3.518,0.475,5.893-0.125,12.023
			c-1.455-0.79-2.881-2.5-2.589-4.366c0.259-1.686,1.344-1.907,1.491-4.816c-1.067,0.649-4.612-3.113-4.928-0.113
			c-0.526,4.345,1.987,10.403,6.609,11.474c0.77-4.128,0.43-9.15,0.646-13.467c2.549,5.049,2.854,13.35,2.722,19.942
			c-0.142,6.317,3.443,13.399,7.709,17.183c5.096,4.435,14.312,7.367,19.385,5.441c-3.714-0.688-8.781-1.073-11.797-4.193
			c1.19,0.382,3.395,0.986,4.82,1.207c6.92,1.088,8.894-0.444,9.57-0.975c1.135-0.908,1.715-1.663,2.365-2.738
			C132.535,144.05,132.986,142.983,133.581,141.029"/>
		<path fill="#C2B59B" d="M140.597,134.09c0.17,8.573-3.81,18.951,4.119,18.332c1.154-0.395,3.339-1.179,3.087-3.37
			c-0.948-3.8-1.076-7.634,1.955-9.667c-2.068-2.17-4.79,1.595-6.546,0.93c1.304-1.527,2.346-2.356,3.3-2.682
			c1.343-0.436,1.562-0.396,3.081-1.666c0.411-0.35,2.263-1.96,3.423-2.101c0,0,0.065-1.055-1.125-1.562
			c-1.216-0.528-4.554-1.106-4.851-0.153c-1.17,1.69-2.72,2.244-4.633,2.924c-0.092-0.661,0.452-1.327,0.755-1.701
			c3.975-7.545,5.719-8.05,5.785-7.51c-0.789,0.889-0.925,3.388,0.368,4.028c1.468-2.709,5.002-3.062,8.232-1.847
			c3.221,1.029,1.698-2.849,0.586-5.446c-1.56-3.668-4.279-8.486-5.674-8.209C145.72,116.085,141.537,128.285,140.597,134.09
			 M155.764,82.77h0.153c0.979,3.562,0.313,5.19,1.574,9.714c1.497,5.252,0.477,7.761,0.536,10.207
			c0.053,1.837,0.484,2.729,0.296,4.415c-0.487,4.207-0.651,5.348-0.832,7.98c0.312,5.728,6.236,12.27,1.544,14.573
			c-1.692,0.369-4.451-0.802-5.567,0.992c-0.947,0.853,0.874,2.91-0.516,4.688c-0.553,0.741-1.84,1.563-2.867,2.263
			c0.826,0.039,1.452,0.444,1.54,1.101c-0.037,1.742-1.23,2.057-1.832,4.903c-0.64,2.873,2.335,3.887,0.99,6.633
			c-1.401,2.618-3.493,4.997-6.119,5.352c-2.169,0.323-4.976,0.183-8.123,0.897c-4.745,1.049-4.657,0.526-7.894,0.833
			c-0.995,0.107-0.057-0.409,0.769-1.259c3.754-3.864,4.038-4.985,4.688-6.217c2.683-5.02,3.555-10.318,5.092-16.896
			c1.365-5.86,4.61-16.33,6.566-19.952c-5.611,10.88-11.607,31.351-24.547,32.679c5.241-2.349,8.642-5.819,11.966-11.153
			c0.128-0.218,0.507-0.704,0.97-1.519c-1.099,0.988-1.97,1.909-3.683,2.547c4.805-4.627,6.995-8.601,8.204-11.312
			c3.874-8.736,8.479-20.445,11.562-25.052c-11.488,10.999-5.371,17.93-19.485,31.631c4.205-4.783,5.641-7.039,7.483-12.448
			c0.871-2.605,0.616-2.486,1.297-4.318c0.539-1.459,0.109-2.337,0.627-3.431c0.907-3.929,5.562-12.513,3.764-9.512
			c-4.139,6.832-2.543,2.597-7.34,12.659c2.134-8.227,5.319-12.43,6.031-13.661c-2.116,2.56-3.508,4.203-6.401,6.066
			c-4.029,2.614-0.153-0.147,3.919-5.717c-4.102,3.562-3.222,1.339-1.929,0.026c1.254-1.296-1.055-0.376-1.055-0.376
			s2.799-1.826,4.014-2.726c-2.825,1.383-8.41,3.026-8.41,3.026l4.396-3.36c0,0-11.844,4.58-11.726,4.494
			c3.17-2.711,4.713-3.943,7.801-5.227c-0.692,0-13.124,3.225-13.124,3.225l8.155-3.891c0,0-5.325,1.031-7.683,2.324
			c-0.16-0.145,0.851-1.025,0.851-1.025l0.696-0.402l-3.855,0.808c0,0,2.148-1.801,3.252-1.782c-0.319,0-1.416-0.106-2.631,0.284
			c-0.92,0.315-2.17,0.824-2.687,1.075c-1.689,0.804-1.422,0.589-1.108,0.397c8.847-5.792,14.698,0.008,24.571-1.838
			C145.091,94.549,156.473,92.709,155.764,82.77"/>
		<path fill="#C2B59B" d="M150.495,81.745c-0.661-0.016-0.757-1.029-0.323-1.387C150.302,80.779,150.536,81.134,150.495,81.745
			 M149.978,83.74c-0.809,0.678-1.903,1.27-1.657,2.836c-0.62,0.08-1.184,0.259-1.676,0.559c-0.117,0.048-0.407,0.232-0.447,0.309
			c0,0.027,0.38,0.457,0.401,0.575c0.083,0.342-0.021,0.553-0.071,0.932c-0.19-0.218-0.29-0.497-0.489-0.705
			c-0.193-0.218-0.419-0.393-0.593-0.585c-2.354-0.259-3.92,0.677-4.638,2.2c-0.656,0.041-1.186,0.02-1.729,0.171
			c-0.174,0.045-0.313,0.154-0.462,0.194c-0.363,0.087-0.716,0.054-1.153,0.054c0.363-0.379,1.062-0.419,1.667-0.553
			c1.021-0.206,1.518-0.931,2.215-1.586c0.472-0.461,0.861-0.806,1.462-1.054c0.615-0.251,1.427-0.251,2.253-0.226
			c0.839,0.042,1.496-0.078,1.979-0.506c0.416-0.377,0.763-0.87,1.118-1.393c0.707-1,1.435-1.966,1.84-3.239
			C150.675,82.296,149.778,82.969,149.978,83.74 M135.932,89.968c-0.15,0.117-0.288,0.159-0.452,0.257
			c-0.18,0.126-0.292,0.342-0.504,0.309c-0.061,0-0.23-0.105-0.193-0.23c0.029-0.165,0.358-0.235,0.478-0.292
			c0.419-0.595,0.845-1.15,1.131-1.894c-1.039-0.524-2.199-0.935-3.179-1.491c0.01-0.122-0.087-0.144-0.042-0.273
			c0.088-0.111,0.284-0.088,0.339,0c2.217,0.387,3.771,1.398,5.837,1.931c-0.17,0.196-0.38,0.359-0.667,0.381
			c-0.394,0.031-0.749-0.285-1.188-0.159C136.818,88.72,136.435,89.539,135.932,89.968 M105.753,68.541
			c-0.073-0.124-0.619-0.242-0.665-0.457c0-0.082,0.098-0.261,0.231-0.236c0.105,0.001,0.388,0.155,0.484,0.218
			c0.065,0.048,0.125,0.159,0.223,0.255c0.11,0.085,0.27,0.178,0.351,0.274c0.758,0.958-0.065,3.225,0.961,3.806
			c-0.087,0.126-0.225,0.17-0.306,0.3c-0.516,0.848,0.306,1.972,0.795,2.331c-1.991-0.076-2.648-1.483-3.552-2.671
			c0.812,0.044,1.072,0.648,1.751,0.818C106.395,71.624,105.858,70.055,105.753,68.541 M116.204,65.095
			c-0.455,0.723-0.03,2.309-0.595,3.041c-0.194,0.255-0.521,0.396-0.999,0.437c0.395-1.117,0.287-2.934,1.057-3.608
			c0.164-0.141,0.369-0.191,0.537-0.302c0.114-0.057,0.241-0.029,0.271,0.084C116.497,64.899,116.292,64.99,116.204,65.095
			 M132.202,87.51c0.23,0.169,0.466,0.42,0.261,0.775c-0.487-0.266-1.672-0.099-1.749,0.436c-0.091,0.582,0.591,0.77,0.412,1.492
			c-0.078,0.032-0.203-0.111-0.304-0.2c-0.319-0.27-0.504-0.636-0.749-1.001c-0.891-1.38-2.457-2.201-3.924-3.093
			c-1.876-1.184-3.627-2.598-5.421-3.9c-2.625-1.955-5.514-3.795-9.95-4.012c-1.56-0.076-3.01,0.011-3.527,1.128
			c-0.105,1.378,0.374,2.359,0.78,3.307c0.064,0.14,0.229,0.293,0.166,0.493c-0.075,0.072-0.278,0.021-0.292,0.021
			c-0.078-0.05-0.088-0.241-0.137-0.335c-0.23-0.392-0.594-0.786-0.899-1.196c-1.735-2.319-3.565-4.669-5.533-6.781
			c-0.327-0.362-0.67-0.688-0.947-1.043c0.244-0.25,0.811-0.168,1.005-0.421c-0.041-1.927,0.108-3.866,0.108-5.727
			c0-5.726-2.718-9.133-6.136-11.481c-0.049-1.264-0.655-2.157-1.421-2.836c-0.771-0.666-1.701-1.178-2.766-1.479
			c-2.666-0.731-4.957,0.382-5.209,2.845c-1.169-0.117-1.783,0.467-2.43,0.928c-0.688,0.479-1.448,0.717-2.711,0.601
			c0.408-0.173,0.785-0.26,1.145-0.439c1.043-0.473,1.771-1.376,3.259-1.429c0.179-2.045,2.033-2.404,3.031-3.636
			c-0.262-0.097-0.538-0.29-0.825-0.277c0-0.037,0-0.07-0.007-0.11c-0.476-0.123-0.885-0.411-1.255-0.7
			c-0.025-0.003-0.033-0.048-0.062-0.062c-0.27-0.148-0.551-0.285-0.973-0.285c-1.254,0-2.126,1.157-3.206,1.398
			c0.623-1.809,2.838-2.042,3.893-3.43c-1.564-0.858-3.779,0.034-5.143,0.452c-0.13-0.377,0.101-0.646,0.387-0.812
			c1.199-0.66,3.962-0.518,5.483-0.242c0.705-0.518-0.3-1.435-0.404-2.079c0.612,0,0.792,0.392,1.109,0.669
			c0.683-0.519,1.317-1.281,2.661-0.999c-0.818,0.744-2.342,0.804-2.45,2.277c2.577-0.542,4.647-1.909,8.042-1.652
			c-1.314,0.559-3.348,0.387-3.307,2.283c3.843,1.333,9.147,1.187,9.406,6.085c1.167,0.114,2.009,0.511,3.281,0.511
			c0.776-0.949,0.194-2.329-0.32-3.063c-0.581-0.821-1.314-1.515-1.878-2.267c0.305-0.334,0.564-1.018,0.276-1.543
			c-0.635-1.183-2.756-1.636-4.228-1.887c2.086-0.533,4.009,0.303,4.764,1.572c0.688-0.111,1.493-0.085,2.246-0.059
			c-0.596,0.407-1.478,0.581-1.54,1.502c-0.018,0.449,0.196,0.977,0.43,1.369c0.219,0.421,0.461,0.792,0.677,1.126
			c0.55,0.921,1.208,2.077,0.764,3.319c2.039,1.362,4.147,2.683,4.064,6.157c1.759,0.318,3.509,1.982,5.4,0.965
			c1.122-0.614,1.247-2.347,2.145-3.185c0.379-0.363,0.939-0.511,0.994-1.191c0.107-1.04-0.683-1.82-0.963-2.63
			c-0.504-0.181-0.847-0.481-1.365-0.633c-0.014-0.1,0.117-0.117,0.199-0.184c0.402-0.318,0.662-0.847,1.433-0.834
			c-0.261,2.003,1.332,2.555,1.573,4.218c0.76-0.148,1.228-0.535,2.058-0.592c0.763-2.499-0.457-4.897-2.253-5.604
			c0-0.133,0.135-0.233,0.195-0.381c0.222-0.385,0.289-0.879,0.812-0.917c0.301,0.366-0.21,0.69-0.115,1.034
			c0.042,0.131,0.34,0.225,0.521,0.234c0.518,0.076,1.245-0.078,1.875-0.052c0.636,0.004,1.094,0.203,1.293,0.577
			c-0.749,0.273-1.999-0.078-2.696,0.262c0.803,1.081,1.41,2.512,1.46,4.439c0.89-0.303,2.196-1.021,3.314-0.44
			c0.62-0.265,1.369-1.269,0.993-2.16c-0.138-0.287-0.373-0.381-0.563-0.638c0.488,0.1,0.867,0.178,1.098,0.516
			c0.368,0.658-0.037,1.659-0.287,2.216c0.74,0.588,1.662,1.082,2.189,1.783c-1.179-0.268-2.02-0.991-3.43-1.058
			c-1.343-0.046-2.647,0.312-3.823,0.691c-1.674,0.584-3.159,1.277-4.066,2.671c-0.267,0.42-0.793,1.223-0.521,1.857
			c0.107,0.244,0.374,0.441,0.605,0.625c0.06,0.08,0.226,0.229,0.325,0.392c0.247,0.113,0.428,0.331,0.603,0.555
			c0,0.011,0.02,0.049,0.02,0.076c0.135,0.151,0.247,0.383,0.426,0.398c0.19,0.018,0.485-0.279,0.596-0.381
			c0.16-0.174,0.374-0.399,0.538-0.433c0.144-0.004,0.487,0.16,0.729,0.25c3.38,1.118,7.067,1.933,9.032,4.392
			c0.134,0.172,0.261,0.362,0.393,0.557c0.166,0.15,0.311,0.301,0.479,0.518c0.026,0.074,0.129,0.126,0.134,0.175
			c0.045,0.079,0.083,0.201,0.086,0.249c0.242,0.418,0.815,0.806,1.36,0.878c1.646,0.185,2.076-1.541,1.646-2.943
			c0.091-0.017,0.184,0.062,0.281,0c0.047-0.088,0.134-0.098,0.215-0.156c0.083-0.058,0.177-0.134,0.271-0.161
			c0.647-0.648,1.433-1.026,1.345-2.324c-0.118-1.554-1.533-2.272-2.367-3.163c-0.319-0.357-0.536-0.756-0.715-1.193
			c1.512,0.749,2.026,2.528,4.118,2.706c0.056,0.137-0.144,0.264-0.245,0.421c-0.508,0.87-0.293,2.454,0.323,3.163
			c0.137,0.148,0.333,0.203,0.42,0.37c-0.35,0.092-0.77,0.156-1.262,0.156c-0.488,0-1.021-0.036-1.364,0.083
			c-0.128,0.076-0.221,0.231-0.348,0.239c0.148,0.871-0.392,1.675-0.072,2.351c0.167,0.451,0.763,0.509,1.22,0.753
			c0.272,0.147,0.435,0.306,0.637,0.51c-1.226-0.385-3.017-0.204-3.699,0.555c-0.677,0.673-0.175,1.694,0.289,2.267
			c-0.464-0.17-0.913-0.47-1.565-0.389c-0.354,0.289,0.124,1.093-0.185,1.45c0,0.095-0.128-0.055-0.138-0.088
			c-0.359-0.352-0.508-0.807-0.467-1.316c0.081-0.789,0.665-1.447,0.665-2.228c0-0.761-0.45-1.206-0.657-1.846
			c-0.111-0.182-0.28-0.318-0.41-0.496c-0.086-0.085-0.127-0.215-0.209-0.311c-0.199-0.292-0.543-0.57-0.882-0.851
			c-2.124-1.846-5.03-3.493-9.119-2.936c-0.587,4.704,1.502,7.648,2.877,10.807c0.356,0.818,0.646,1.615,0.878,2.575
			c0.082,0.285,0.136,0.607,0.21,0.911c0.124,0.25,0.277,0.577,0.205,0.998c-0.463-0.074-0.37-0.359-0.437-0.828
			c-0.041-0.281-0.21-0.668-0.347-1.006c-0.816-2.201-2.027-4.198-2.991-6.17c-0.924-1.861-1.277-3.926-1.748-6.13
			c-0.146-0.719-0.284-1.458-0.503-2.131c0-0.055-0.053-0.111-0.073-0.18c-0.106-0.083-0.2-0.167-0.337-0.24
			c-0.06-0.039-0.1-0.098-0.1-0.15c-0.021,0-0.04-0.019-0.04-0.019c-0.082-0.022-0.107-0.048-0.134-0.085
			c-0.436-0.165-0.754-0.392-1.317-0.425c-1.226-0.098-2.251,0.351-3.457,0.214c-0.221,0-0.473-0.11-0.652-0.205
			c-0.538-0.29-0.963-0.812-1.625-1.067c-0.666-0.241-1.386-0.281-2.298-0.359c0.691-4.672-2.752-6.616-7.283-6.056
			c-0.637,0.655,0.357,1.054,0.917,1.288c1.395,0.553,2.161,1.646,2.767,2.959c0.831,1.798,1.281,3.771,2.432,5.218
			c1.814,0.417,3.251,1.627,3.391,3.697c0.009,0.307,0.009,0.659,0,0.977c-0.059,0.283-0.223,0.603-0.211,0.84
			c0.025,0.196,0.326,0.503,0.502,0.73c0.521,0.661,1.229,1.148,1.953,1.6c0.976,0.644,2.031,1.257,2.561,2.229
			c0.23,0.458,0.324,0.904,0.553,1.248c0.739,1.024,2.16,1.443,2.761,2.621c-0.108,0.527-0.572,0.697-0.991,0.909
			c-0.138-0.141-0.205-0.211-0.165-0.458c0.027-0.149,0.191-0.331,0.175-0.451c-0.01-0.112-0.348-0.385-0.493-0.504
			c-2.64-2.264-4.948-5.139-7.779-7.121c-0.534-1.359,0.523-3.614-0.547-4.53c-0.275-0.238-0.735-0.431-1.17-0.576
			c-0.406-0.141-0.897-0.308-1.145-0.568c-0.118-0.148-0.204-0.44-0.319-0.681c-1.597-3.437-2.193-7.908-6.804-8.28
			c-0.094-0.42,0.198-0.636,0.366-0.871c0.475-0.683,0.904-1.788,0.456-2.789c-0.505-1.099-1.592-1.714-2.686-2.245
			c-2.223-1.057-4.93-1.734-8.038-1.839c0.101-0.606,0.871-0.497,1.271-0.775c-0.169-0.471-0.542-0.697-1.219-0.675
			c-0.9,0.066-1.723,0.516-2.45,0.953c-0.741,0.453-1.439,0.967-1.823,1.548c0.077,0.231,0.262,0.396,0.478,0.532
			c0.047,0,0.083,0.004,0.135,0.05c0.391,0.283,0.808,0.583,1.287,0.672c0.065,0.023,0.112,0.065,0.131,0.118
			c0.159,0.054,0.306,0.133,0.393,0.211c1.897,0.628,3.842,1.198,5.458,2.12c1.439-0.614,2.438-1.673,4.423-1.739
			c-0.697,1.043-2.639,1.021-3.22,2.264c1.123,2.386,2.601,4.45,4.716,5.863c0.387-0.333,0.152-1.294,1.07-1.124
			c-0.644,1.072-0.192,2.185,0.248,3.14c0.695,1.549,1.234,3.338,1.494,5.268c0.275,2.086,0.255,4.4-0.135,6.279
			c-0.091,0.596-0.309,1.154-0.443,1.777c0,0.014,0,0.047,0,0.054c0.007,0.387,0.359,0.946,0.599,1.264
			c0.763,1.086,2.008,1.775,3.428,2.15c1.862,0.488,4.08,0.303,5.491-0.448c0.216-0.104,0.389-0.271,0.61-0.282
			c0.338,0.218-0.017,0.503-0.164,0.674c3.738,1.074,7.391,2.209,10.066,4.426c0.697,0.601,1.925,1.766,3.382,1.246
			c0.942-0.353,1.019-1.677,0.82-2.977c-0.163-1.104-0.559-2.15-0.632-3.285c-0.066-0.83,0.283-1.466,0.23-2.335
			c-0.101-1.564-0.717-2.701-0.87-4.274c-0.145-1.116,0.153-1.845,0.77-2.342c0.086-0.079,0.234-0.234,0.389-0.152
			c0.083,0.176-0.05,0.331-0.104,0.478c-0.441,1.326,0.16,2.832,0.482,3.882c0.241,0.716,0.468,1.4,0.569,2.178
			c0.179,1.521-0.215,3.612-0.046,5.154c0.066,0.828,0.328,1.387,0.8,1.91c0.811,0.955,2.094,1.519,3.873,1.479
			c0.021,0.081,0.2,0.069,0.333,0.081c-0.066,0.072-0.312,0-0.333,0.122c2.456-0.1,4.918,0.167,6.884,0.745
			c-1.693,0.507-3.591,0.051-5.264-0.229c-0.841-0.141-1.749-0.212-2.692-0.258c-0.908-0.039-1.826-0.135-2.632,0.169
			C127.941,85.996,130.581,86.266,132.202,87.51 M88.097,71.894c-1.333,0.743-4.032,0.695-5.607,0.247
			c1.945-0.247,4.016-0.364,5.819-0.761c0.021-0.037,0.028-0.045,0.073-0.063c0.144-0.019,0.199,0.044,0.213,0.144
			C88.626,71.611,88.269,71.801,88.097,71.894 M88.496,74.872c0.206-0.127,0.509-0.37,0.792-0.199
			c0.122,0.105,0.176,0.321,0.243,0.53c0.023,0.217-0.008,0.496,0.061,0.716c0.111,0.336,0.869,0.669,1.235,0.811
			c1.51,0.536,3.777,0.344,5.466,0.11c-1.851,1.435-5.891,0.896-7.493-0.383C89.104,75.839,88.5,75.479,88.496,74.872
			 M92.207,60.358c2.522-0.113,4.661,0.383,5.39,2.15c-0.096,0-0.151,0.047-0.219,0.09c-0.111-0.109-0.147-0.24-0.243-0.366
			c-0.988-1.171-4.724-1.409-4.928,0.481c-0.071,0.674,0.189,1.025,0.382,1.528c-1.061-0.187-1.155-1.306-1.24-2.483
			c0.481-0.121,0.925-0.312,1.146-0.706C92.548,60.658,92.281,60.524,92.207,60.358 M88.025,59.47
			c-0.761-0.226-1.692-0.25-1.788-1.115c0.919,0.155,1.934,0.736,2.668,0.105c0.648-0.549,1.38-2.014,1.299-3.293
			c-0.029-0.507-0.219-0.953-0.562-1.214c-0.145-0.129-0.284-0.14-0.288-0.415c0.176-0.245,0.529,0.089,0.752,0.307
			c0.224,0.182,0.412,0.367,0.579,0.437c0.349-0.211,0.434-0.673,1.017-0.644c0.15,0.551-0.354,0.744-0.559,1.087
			c0.257,2.912-1.812,3.718-2.208,6.067c-0.289,0.015-0.668-0.026-0.976,0c-0.039,0.015-0.067,0.015-0.111,0.015
			c-0.293,0.163-0.585,0.31-0.821,0.514c-0.027,0.022-0.038,0.045-0.056,0.085c-0.688,1.025-0.6,3.044-0.444,4.621
			c0.058,0.587,0.092,1.192,0.313,1.561c0.216,0.374,0.657,0.669,1.066,0.924c1.242,0.833,2.564,1.52,4.117,1.957
			c0.437-0.415,0.339-1.478,0.141-2.079c1.146-1.037,1.904-2.474,3.606-2.958c0.012,0.1-0.096,0.191-0.188,0.279
			c-0.285,0.411-0.725,1.265-0.377,1.917c-1.062,0-1.816,0.288-2.23,0.943c1.125,1.799,4.261,1.875,5.982,3.248
			c0.143,0.137,1.028,0.87,0.268,0.751c-0.173-0.342-0.625-0.588-1.135-0.77c-1.348-0.491-3.299-0.255-4.216,0.482
			c-0.491,0.407-0.762,1.048-0.898,1.758c-0.042-1.178-0.177-1.988-0.77-2.581c-0.925-0.932-2.542-1.222-4.015-1.716
			c-1.312-0.481-2.776-1.204-2.899-2.792c-0.061-0.894,0.244-1.63,0.183-2.516c-0.108-1.613-1.339-2.468-2.155-3.415
			c-0.901-1.029-1.468-2.279-1.385-4.202c0.032,0,0.032,0,0.032,0.009c0.327,1.245,0.865,2.191,1.603,3.042
			c0.712,0.821,1.538,1.535,2.19,2.41c0.107-0.449,0.359-0.938,0.744-1.164c0.083-0.043,0.207-0.082,0.287-0.116
			c0.289-0.261,0.655-0.405,1-0.608c0,0,0,0,0-0.011C87.96,60.182,88.043,59.845,88.025,59.47 M80.573,65.55
			c-0.079-0.252-0.681-0.394-0.975-0.42c-1.292-0.117-2.458,0.416-3.682,0.311c0.906-0.779,2.346-1.003,4.084-0.938
			c-0.108-1.086-0.467-2.798,0.41-3.256c0.192-0.099,0.352,0.097,0.352,0.271c0.01,0.129-0.132,0.202-0.207,0.376
			c-0.145,0.274-0.186,0.703-0.155,1.184c0.011,0.355,0.027,0.829,0.117,1.051c0.067,0.147,0.5,0.543,0.678,0.666
			c0.17,0.096,0.446,0.114,0.679,0.152c0.031,0.075-0.094,0.137-0.144,0.183c-0.385,0.403-0.676,1.146-1.146,1.441
			C80.494,66.238,80.664,65.869,80.573,65.55 M120.112,90.36c-0.034-0.045-0.032-0.082,0-0.117
			c-0.485,0.126-0.776-0.439-1.138-0.653c-0.308-0.206-0.795-0.241-1.185-0.403c-1.077-0.392-2.082-1.205-3.164-1.594
			c-0.843-0.316-1.878-0.392-2.72-0.149c-0.83,0.216-1.349,0.702-1.933,1.222c-1.831-0.564-4.285-0.622-6.24-1.156
			c-0.226-0.066-0.651-0.287-0.813-0.258c-0.234,0.04-0.256,0.476-0.526,0.476c-0.176,0-0.318-0.327-0.421-0.52
			c-0.764-1.377-2.362-1.938-3.908-2.541c-0.509,0.294,0.068,1.042,0.121,1.461c0.164,1.095-0.495,1.854-1.05,2.41
			c-0.6,0.602-1.262,1.088-1.492,1.931c-0.851,0.552-1.157,1.567-2.359,1.764c-0.171,0.018-0.363-0.029-0.559,0.018
			c-0.102,0.018-0.251,0.144-0.361,0.197c-0.246,0.1-0.511,0.115-0.687,0.233c-0.199,0.106-0.367,0.524-0.72,0.405
			c-0.142-0.241,0.125-0.405,0.293-0.501c0.159-0.137,0.312-0.278,0.505-0.385c0.288-0.163,0.64-0.157,1.021-0.241
			c1.059-0.299,1.775-1.515,2.304-2.368c0.62-0.972,1.264-1.897,2.338-2.339c0.082-1.95-0.531-3.209-1.387-4.215
			c-1.506,0.344-2.615-0.542-3.885-0.877c-1.398-0.378-2.389,0.289-3.652,0.373c-0.129,0.012-0.304,0.012-0.399,0
			c-1.017-0.083-1.426-1.109-2.442-1.197c-1.438-0.104-1.935,1.032-2.536,1.81c-0.256-0.212-0.538-0.46-0.825-0.664
			c-0.359-0.226-0.683-0.515-1.167-0.637c-0.015-0.053-0.071-0.063-0.056-0.173c-0.026,0.12-0.044,0.036-0.07,0.092
			c-0.175-0.052,0.1-0.104,0.025-0.271c0.13,0.092,0.143-0.021,0.251,0c0.182,0.04,0.182,0.107,0.315,0.168
			c0.31,0.131,0.781,0.185,1.194,0.131c1.417-0.08,2.293-1.489,1.805-3.117c-0.059-0.203-0.172-0.402-0.263-0.574
			c-0.101-0.191-0.248-0.338-0.285-0.54c-0.054,0-0.084-0.031-0.158-0.016c0.02-0.074-0.008-0.179-0.062-0.241
			c-0.005-0.021-0.09-0.021-0.09-0.039c-0.074-0.07-0.074-0.218-0.131-0.292c-0.263-0.385-0.628-0.673-0.945-1.021
			c-0.772-0.821-1.681-1.609-2.884-1.998c-0.245-0.069-0.508-0.069-0.792-0.171c-0.344-0.124-0.837-0.734-1.064-1.028
			c-0.159-0.228-0.279-0.438-0.39-0.668c-0.107-0.251-0.16-0.506-0.258-0.769c-0.02-0.089-0.092-0.155-0.13-0.217
			c0.017-0.393-0.266-0.912-0.451-1.248c-0.5-0.944-1.114-1.85-1.753-2.597c-0.762-0.748-1.583-1.469-1.608-2.793
			c-0.033-1.291,0.679-2.283,1.248-3.122c1.206-1.72,2.771-3.146,3.292-5.486c-1.713-0.36-3.042-1.149-4.035-2.316
			c-0.071-0.111-0.418-0.366-0.326-0.536c0.106-0.17,0.533,0.17,0.634,0.218c1.462,0.825,2.785,1.895,4.663,2.273
			c0.285-0.73-0.177-1.449-0.117-2.273c0.2-0.34,0.493-0.485,0.888-0.653c0.2-0.1,0.476-0.191,0.537-0.369
			c0.269-0.51-0.112-1.024-0.412-1.212c-0.374-0.226-0.977-0.403-1.555-0.463c-0.42-0.062-1.693,0.056-1.774-0.159
			c-0.067-0.181,0.202-0.298,0.212-0.488c0.016-0.281-0.534-0.67-0.8-0.838c-0.354-0.231-0.731-0.366-0.996-0.594
			c0.733-0.433,1.536,0.041,2.417,0.05c0.238,0.287,0.179,0.845,0.127,1.305c1.75,0.198,4.083,0.402,4.265,2.013
			c0.11,1.172-0.93,1.455-1.483,2.039c-0.112,0.126-0.22,0.274-0.26,0.43c-0.151,0.466,0.122,0.873,0.329,1.212
			c-2.27,0.852-2.74,3.504-4.19,5.164c-0.847,0.99-2.501,2.088-2.132,4.015c0.166,0.842,0.581,1.51,1.042,2.082
			c0.9,1.189,2.35,1.853,2.43,3.805c0.091,0.082,0.052,0.311,0.178,0.37c0.079,0.617,0.624,1.028,1.106,1.291
			c0.474,0.267,1.038,0.452,1.566,0.573c0.081,0.17,0,0.385-0.069,0.507c1.301,0.84,2.506,1.624,3.361,2.875
			c0.119,0.182,0.188,0.385,0.348,0.555c0.017,0.065,0.111,0.065,0.159,0.14c0.034,0.041,0.056,0.133,0.096,0.177
			c0.07,0.148,0.171,0.245,0.188,0.403c1.184,1.641,2.022,3.603,3.854,4.595c1.327-0.947,3.655-0.453,5.491-0.122
			c0.858,0.141,1.794,0.295,2.65,0.166c0.839-0.11,1.414-0.444,1.906-0.991c0.629,0.88-0.816,0.991-0.787,1.756
			c0.011,0.343,0.451,0.727,0.733,0.955c0.943,0.766,2.074,1.357,3.178,1.894c1.572,0.738,3.197,1.335,5.106,1.631
			c3.405,0.507,6.041-0.392,6.281-3.525c0.051-0.813-0.102-1.582-0.261-2.225c-0.061-0.191-0.205-0.391-0.133-0.578
			c0.255-0.064,0.444,0.161,0.599,0.324c0.489,0.451,0.807,1.138,0.949,1.953c0.195,1.203-0.062,2.388-0.799,2.919
			c2.636,1.089,5.148,2.323,7.379,3.873C120.246,90.105,120.303,90.412,120.112,90.36 M89.458,90.51
			c-0.099,0.031-0.187-0.086-0.246-0.149c-0.198-0.234-0.372-0.501-0.572-0.822c-0.178-0.29-0.524-0.884-0.909-0.967
			c-0.225-0.034-0.577,0.058-0.89,0.073c-2.016,0.082-4.67-0.526-6.057,0.44c0.086,0.172,0.133,0.333,0.219,0.573
			c0.042,0.084,0.216,0.469-0.109,0.461c-0.15-0.001-0.169-0.219-0.231-0.377c-0.198-0.393-0.417-0.88-0.454-1.381
			c-0.681-0.599-1.835-0.684-2.712-1.048c0.393-0.226,0.814-0.397,1.333-0.293c0.743,0.148,1.239,0.833,1.954,0.949
			c0.512,0.059,1.004-0.165,1.509-0.187c0.985-0.054,2.02,0.059,3.058,0.119c0.959,0.059,2.297,0.144,2.957-0.173
			c0.519-0.256,0.841-0.886,1.149-1.374c0.669-1.053,1.209-2.105,2.355-2.614c0.556-0.244,1.26-0.359,2.036-0.505
			c0.026,0,0.026,0.008,0.026,0.023c-1.228,0.547-2.158,1.293-2.917,2.305c-0.743,0.993-1.333,2.141-2.076,3.158
			C89.104,89.288,89.498,89.683,89.458,90.51 M76.64,80.769c-0.026,0.345,0.036,0.739,0.159,1.022
			c0.074,0.165,0.191,0.216,0.191,0.464c-0.095,0.111-0.191,0.042-0.351,0.042c0.009-0.137-0.091-0.142-0.076-0.28
			c-0.853-0.964-1.656-2.133-2.462-3.085c2.602,0.416,4.569-0.657,5.361-2.373c0.236,0.552,0.971,0.618,1.322,1.039
			C79.349,78.375,76.705,78.737,76.64,80.769 M76.153,90.604c-0.115,0.192-0.475-0.126-0.5-0.161
			c-0.225-0.127-0.393-0.164-0.534-0.264c-1.023-0.605-1.737-1.433-2.281-2.485c-1.203,0.266-1.95,0.988-2.942,1.481
			c-0.035,0.242-0.079,0.452-0.184,0.619c-0.211-0.219-0.505-0.435-0.412-0.843c0.125-0.569,1.438-0.81,1.938-1.081
			c0.293-0.142,0.61-0.384,0.863-0.638c0.241-0.252,0.537-0.576,0.503-0.977c-0.04-0.474-0.446-0.591-0.887-0.762
			c0.48-3.052-1.122-4.92-2.062-7.04c-0.299-0.672-0.687-1.542-0.69-2.388c-0.008-0.283,0.092-0.586,0.004-0.878
			c-0.082-0.333-0.581-0.565-0.89-0.695c-0.419-0.179-0.818-0.282-1.178-0.424c-0.769-0.309-1.491-0.677-2.341-0.818
			c-0.089-0.779-0.185-1.94-0.581-2.519c-0.078-0.135-0.415-0.29-0.272-0.492c0.129-0.206,0.465,0.086,0.465,0.257
			c1.687,1.19,2.069,3.714,4.995,3.663c-0.304-1.371,0.228-2.907,0.843-3.786c0.206-0.292,0.553-0.931,0.923-0.677
			c-0.194,1.188-1.124,1.772-1.147,3.098c-0.001,1.52,1.212,1.942,2.455,2.297c1.24,0.389,2.414,0.75,2.913,1.82
			c-1.58-0.487-2.826-1.483-5.1-1.346c-0.397,2.537,0.772,4.398,1.966,5.771c0.14,0.197,0.474,0.457,0.508,0.621
			c0.031,0.204-0.104,0.588-0.104,0.865c-0.004,1.771,1.112,2.738,1.339,4.347c0.012,0.276-0.056,0.565,0,0.902
			c0.038,0.396,0.627,0.926,0.921,1.178c0.189,0.168,0.396,0.325,0.566,0.478c0.177,0.133,0.345,0.35,0.532,0.486
			C75.99,90.351,76.303,90.37,76.153,90.604 M63.93,86.331c-0.171-0.065-0.341-0.148-0.497-0.203
			c-0.152-0.033-0.371,0.036-0.398-0.151c-0.055-0.348,0.339-0.188,0.478-0.146c0.247,0.057,0.486,0.015,0.711,0.04
			c1.582,0.187,2.695,0.803,3.688,1.615C66.665,87.223,65.129,86.782,63.93,86.331 M61.227,86.057
			c-0.63-0.664-2.042-0.595-2.679-1.239c-0.108-0.101-0.156-0.261-0.238-0.332c-0.083-0.103-0.251-0.136-0.355-0.238
			c-0.083-0.074-0.424-0.383-0.576-0.347c-0.198,0.025-0.388,0.516-0.407,0.743c-0.044,0.48,0.093,1.026,0.208,1.302
			c0.064,0.173,0.242,0.334,0.131,0.526c-0.202,0.077-0.34-0.125-0.473-0.244c-0.888-0.787-1.135-3.184,0.342-3.546
			c0.064,0.599,0.58,0.812,0.919,1.14c0.072,0.078,0.09,0.177,0.165,0.218c0.393,0.358,1.071,0.574,1.582,0.85
			c0.302-0.892,0.143-2.219,0.224-3.327c0.027,0,0.027,0.009,0.027,0.018c0.145,0.087,0.284,0.161,0.386,0.26
			c0.477,0.548,0.058,1.565,0.15,2.457c0.068,0.607,0.712,0.986,0.908,1.401c0.134,0.285,0.101,0.628,0.107,1.012
			C61.474,86.505,61.403,86.266,61.227,86.057 M62.213,71.694c-0.025,0.207-0.153,0.447-0.035,0.74c-0.09,0-0.131-0.074-0.212-0.093
			c-0.182,0.873-0.031,2.094-0.083,3.111c-0.384-0.37-1.454-0.562-1.888-0.105c-0.228,0.246-0.161,0.538-0.401,0.786
			c-0.018-1.897,1.136-2.656,2.081-3.577c-0.064-0.1,0.016-0.201,0.012-0.318c0.075-0.009,0.104,0.017,0.164,0.017
			c-0.203-0.188,0.033-0.631-0.025-0.938c0-0.052,0.082-0.007,0.11-0.03c0.056-0.669,0.436-1.049,0.63-1.607
			c0.347-0.08,0.669,0.157,1.024,0c0.02,0.065-0.085,0.136-0.132,0.172c-0.352,0.336-0.668,0.645-0.941,1.091
			c-0.115,0.17-0.245,0.344-0.303,0.518C62.211,71.525,62.236,71.601,62.213,71.694 M67.965,66.434
			c-0.04,0.644-0.336,1.528-0.671,2.005c-0.394,0.589-0.956,0.792-1.772,0.855c0.232-0.245,0.535-0.319,0.735-0.566
			c0.506-0.592,0.559-1.374,1.164-1.94C67.552,66.667,67.77,66.56,67.965,66.434 M53.171,80.598c1.709-0.42,2.844-1.428,4.493-1.9
			c-0.396-0.477-0.396-1.452-0.484-2.362c-0.027-0.037-0.042-0.096-0.042-0.163c0.015-0.024,0.024-0.052,0.024-0.076
			c-0.024-0.25-0.054-0.491-0.098-0.69c-1.37-0.061-2.111-0.973-3.657-0.699c-0.031-0.082,0.083-0.196,0.161-0.285
			c0.181-0.188,0.407-0.399,0.749-0.417c0.904-0.079,1.849,0.808,2.672,0.484c0.075-0.032,0.119-0.056,0.173-0.097
			c0-0.214,0.048-0.407,0.065-0.632c0-0.044,0.04-0.081,0.07-0.093c0.203-1.886,1.457-2.879,2.254-4.221v-0.181
			c0.072-0.036,0.105-0.062,0.16-0.09c0.103-0.218,0.191-0.435,0.277-0.667c0.007-0.017,0.032-0.071,0.032-0.119
			c0.033-0.217,0.033-0.474,0.024-0.773c-0.089-1.59-0.825-3.013-0.734-4.698c0.058-0.866,0.404-1.539,0.685-2.198
			c0.303-0.696,0.478-1.383,0.675-2.188c0.074,1.432-0.197,2.81-0.411,4.122c-0.19,1.272-0.356,2.894,0.119,4.044
			c0.201-0.072,0.352-0.267,0.555-0.374c1.229-0.688,3.294-0.603,4.52-1.336c0.114-1.114,0.445-2,0.862-2.811
			c-0.946-0.71-2.031-1.275-2.969-1.987c1.081-0.979-0.931-2.501-0.051-3.762c0.436-0.15,0.452,0.494,0.552,0.89
			c0.511,2.11,1.154,4.095,3.688,4.087c1.646,2.913,5.782,3.351,7.427,6.264c-1.013,1.793-1.55,4.067-3.595,4.855
			c0.564-1.617,2.212-2.388,2.393-4.443c0.071-1.187-0.684-1.666-1.468-2.149c-0.577-0.365-1.132-0.651-1.717-1.025
			c-0.647-0.406-0.98-0.817-1.501-1.228c-0.488-0.399-1.731-1.439-2.53-0.762c-0.655,0.558-0.379,2.112-0.829,2.937
			c-0.113,0.202-0.292,0.333-0.503,0.491c-2.26-0.225-3.893,0.439-4.721,1.826c-0.154,0.676-0.503,1.29-0.834,1.896
			c-0.347,1.073-0.667,2.185-1.269,3.002c-0.144,0.746-0.388,1.475-0.601,2.218c0.145,1.117,0.072,2.407,0.594,3.149
			c0.136,0.201,0.326,0.394,0.583,0.467c0.164,0.049,0.403,0.025,0.612,0.063c0.21,0.039,0.391,0.1,0.528,0.1
			c0.199-0.02,0.377-0.153,0.691-0.114c0.354,0.033,0.744,0.268,1.116,0.473c0.876,0.507,1.811,0.75,3.127,0.907
			c0.178,0.022,0.543,0.136,0.699,0.085c0.202-0.058,0.448-0.82,0.519-1.028c0.258-0.674,0.354-1.036,0.682-1.491
			c0.081-0.104,0.206-0.314,0.346-0.303c0.287,0.071,0.01,0.392-0.037,0.502c-0.251,0.718-0.465,2.21-0.065,2.878
			c0.129,0.174,0.245,0.214,0.343,0.381c-2.918,0.063-5.298-0.804-7.354-1.759c-0.216-0.107-0.356-0.208-0.62-0.14v-0.219
			c-0.217,0.041-0.401-0.033-0.562-0.057c-1.15-0.095-1.96,0.444-2.797,0.81C55.303,80.42,54.463,80.616,53.171,80.598
			 M68.047,55.521c-0.007-0.229-0.066-0.54-0.186-0.757c-0.269-0.451-0.841-0.589-0.922-1.274c0.721-0.063,1.108,0.396,1.296,0.917
			c-0.05-0.455,0.254-0.954,0.452-1.154c0.055-0.082,0.175-0.121,0.278,0c-0.031,0.173-0.103,0.481-0.078,0.808
			c0.119,1.263,1.626,1.474,2.375,2.218c1.582,1.594,0.628,5.357,1.794,7.355c-2.553-0.831-1.409-5.402-3.506-6.694
			c-0.417,1.502-1.978,1.93-2.53,3.285c-0.119,0.259-0.152,0.6-0.293,0.933C66.257,58.911,68.207,57.704,68.047,55.521
			 M71.746,50.487c0.03,0.549,0.188,0.985,0.188,1.55c-0.771,0.148-1.875,0.251-2.513,0.699c-0.121,0.089-0.214,0.196-0.288,0.183
			c-0.199-0.033-0.076-0.203-0.064-0.351c0.007-0.206-0.104-0.503-0.135-0.709C70.192,51.726,70.965,51.105,71.746,50.487
			 M113.193,55.834c0.09,0.159,0.324,0.442,0.19,0.664c-0.282-0.018-0.415-0.285-0.575-0.47c-1.05-1.024-2.07-1.966-2.574-3.533
			c-0.087-0.246-0.107-0.532-0.194-0.806c-0.072-0.217-0.411-0.463-0.632-0.673c-0.662-0.589-1.471-1.121-1.638-2.098
			c0.695-0.096,1.085,0.595,1.465,0.983c0.999,0.984,2.077,2.135,2.942,3.126C111.564,54.212,112.701,55.031,113.193,55.834
			 M114.77,49.34c-0.021-0.048,0.05-0.029,0.097-0.048C114.897,49.34,114.815,49.362,114.77,49.34 M108.513,45.208
			c0.658,0.1,1.455-0.21,2.02,0.062c-0.492,0.191-1.124,0.243-1.377,0.667c2.193,1.535,5.594,1.947,8.192,3.142
			c0.171,0.069,0.376,0.109,0.468,0.261c-0.807-0.183-2.01-0.347-2.858-0.07c-0.05-0.113,0.243-0.263,0.258-0.447
			c-2.246-1.113-4.98-1.749-7.639-2.46C107.996,46.098,108.429,45.826,108.513,45.208 M117.963,49.374
			c0.027,0.077-0.04,0.077-0.092,0.077c0-0.018,0-0.054-0.036-0.062C117.835,49.34,117.923,49.388,117.963,49.374 M126.457,57.319
			c0.025-0.485,0.165-0.822,0.324-1.051c0.353,1.247,0.398,2.784,1.087,3.688c1.43,0.199,2.755,0.494,3.099,1.748
			c-0.571-0.244-1.36-0.897-2.19-1c-0.615-0.074-0.908,0.2-1.062,0.662c-0.883-0.314-1.333-1.174-1.955-1.683
			C126.622,59.605,126.37,58.308,126.457,57.319 M132.233,65.206c-0.176-0.042-0.113-0.216-0.165-0.433
			c-0.072-0.401-0.354-0.805-0.491-1.269c-0.16-0.444-0.272-0.906-0.217-1.498c0.057-0.034,0.149,0.097,0.251,0.185
			c0.103,0.104,0.185,0.214,0.287,0.271c0.359-0.105,0.809-0.63,1.144-0.867c0.083-0.042,0.314-0.024,0.354,0.129
			c0.058,0.248-0.271,0.348-0.396,0.466c-0.225,0.648-0.512,1.546-0.512,2.356C132.488,64.773,132.587,65.279,132.233,65.206
			 M138.504,59.091c2.093,0.936,2.166,2.609,2.139,3.59c-0.353-1.888-1.07-2.88-3.396-3.485c-1.143-0.285-2.06-1.855-2.979-2.646
			c-0.288-0.248-0.76-0.581-1.144-0.599c-0.318-0.015-0.558,0.127-0.892,0.077c-1.483-0.15-1.915-1.727-2.776-2.584
			c1.33,0.094,1.443,1.574,2.601,1.915c0.225-0.31,0.062-0.359-0.062-0.594c-0.021-0.125-0.098-0.105-0.112-0.265
			C136.842,56.601,135.679,57.922,138.504,59.091 M140.316,78.698c0.543-0.427,1.209-0.936,1.128-1.884
			c-0.016-0.137-0.099-0.163-0.099-0.293c0.062-0.137,0.147-0.185,0.288-0.098c0.358,0.254,0.234,1.678,0.421,2.157
			c1.851,0.118,2.754-0.712,4.229-0.982c0.043,0.114-0.102,0.231-0.174,0.331c-0.712,0.978-2.537,0.988-3.764,1.532
			c0.703,0.81,1.199,2.114,1.036,3.576c-0.113,1.11-0.478,1.892-1.112,2.382c-0.216,0.192-0.483,0.267-0.777,0.412
			c-0.064,0.03-0.198,0.13-0.28,0.117c-0.323-0.008-0.231-0.485,0.103-0.385c1.61-0.725,2.195-5.503-0.499-5.525
			c-0.747,0-0.79,0.576-1.556,0.616C139.261,79.662,139.726,79.2,140.316,78.698 M152.938,80.271
			c-0.611-1.221-1.714-2.281-1.903-3.895c-0.211-1.703-0.409-2.873-1.819-3.975c-0.19,0.052-0.433,0.126-0.647,0.056
			c-0.226-0.707-0.513-1.424-0.973-1.867c-0.054-0.061-0.16-0.092-0.206-0.171c-0.099-0.059-0.149-0.18-0.223-0.263
			c-0.295-0.132-0.752-0.1-0.969,0.01c-0.921,0.491-0.511,2.724-0.656,3.936c0.437,0.168,0.852,0.261,1.252,0.427
			c0.39,0.182,0.764,0.528,1.123,0.699c0.021,0.121,0.139,0.133,0.139,0.252c0.988,0.361,0.723,2.001,2.154,1.932
			c0.133,0.343,0.286,0.628,0.416,0.909c0.163,0.295,0.338,0.612,0.409,0.922c-0.949,0.174-0.683-0.922-1.301-1.045
			c-0.285-0.051-0.556,0.101-0.709,0.255c-0.58,0.572-0.95,1.85-1.421,2.562c-0.179,0.291-0.39,0.478-0.651,0.657
			c0.338,0.511,0.385,1.298,1.206,1.35c-0.713,1.009-2.165,1.396-2.801,2.389c-0.267-1.368,1.02-1.495,1.646-2.116
			c-0.211-0.562-0.492-1.25-0.322-2.063c0.02,0.082,0.065,0.118,0.111,0.176c0.02-1.693,2.042-2.236,1.718-4.178
			c-0.092-0.551-0.437-1.164-0.625-1.589c-0.083-0.031-0.128-0.046-0.226-0.075c-0.119-0.204-0.37-0.361-0.62-0.474
			c-1.195-0.518-3.062-0.576-4.725-0.469c0.196-0.385,0.575-0.604,1.165-0.712c0.559-0.091,1.268-0.041,1.58-0.369
			c0.229-0.251,0.216-0.753,0.009-1.053c-0.405-0.667-1.297-0.973-2.123-1.199c-0.933-0.233-1.974-0.187-2.795,0.179
			c-1.523,0.723-2.309,2.233-2.058,4.485c-1.333,0.181-1.975,0.799-2.415,1.846c-0.703,1.528-1.113,3.23-3.19,3.255
			c0.35-1.35,2.652-1.276,2.241-3.124c-1.645-0.02-2.672,0.646-3.717,1.213c-0.112,0.067-0.335,0.274-0.469,0.067
			c0.079-0.239,0.338-0.402,0.549-0.553c1.521-1.032,3.775-1.365,5.298-2.356c0.264-0.314,0.503-0.54,0.728-0.821
			c0.273-0.237,0.51-0.555,0.541-0.965c0.103-0.663-0.195-1.146-0.031-1.741c0.107-0.338,0.718-0.742,1.016-0.953
			c1.154-0.788,2.457-1.402,2.764-2.922c0.688,0.831,0.744,2.256,2.427,2.094c-0.134-1.462-0.743-2.368-1.452-3.302
			c-0.087-0.135-0.301-0.28-0.175-0.409c0.12-0.133,0.324,0.104,0.467,0.192c1.026,0.751,1.525,2.072,1.735,3.559
			c0.872-0.411,1.568-0.977,2.147-1.687c0.376,0.181,0.544,0.507,0.984,0.655c0.062,0.165,0.247,0.278,0.375,0.392
			c0.343,0.315,0.528,0.829,0.775,1.209c0.026,0.067,0.086,0.2,0.144,0.182c-0.324-1.165-0.882-2.275-1.684-2.971
			c-0.111-0.103-0.339-0.217-0.379-0.314c-0.046-0.1-0.046-0.273-0.091-0.415c-0.238-0.997-0.593-1.746-1.216-2.352
			c-1.021-0.515-2.196-0.868-2.482-2.115c1.015,0.168,1.303,1.705,2.298,1.885c-0.523-1.508-1.176-3.288-2.935-4.879
			c0.795,1.182-0.052,2.794-1.165,2.914c0,0.392,0.344,0.541,0.396,0.808c-0.867,0.136-1.287,1.059-2.341,0.74
			c0.159-1.131,1.434-1.09,1.406-2.403c1.073,0.309,1.073,0.042,1.487-0.564c0.077-0.111,0.252-0.681,0.197-1.295
			c-0.012-0.015-0.272-0.667-0.607-0.65c-0.241,0.01-0.655-0.614-0.83-0.958c-0.677-1.258-1.309-1.522-2.656-2.19
			c-1.325-0.666-2.361-1.807-3.965-2.375c-1.011-0.347-2.308-0.417-2.492-0.425c-1.195-2.251-4.144-3.644-6.662-4.557
			c-1.268-0.46-2.487-0.966-3.755-1.469c-1.207-0.496-2.812-0.951-4.427-0.562c-0.329-0.594-0.641-1.135-1.144-1.55
			c-1.262-1.04-3.758-0.855-5.339-1.525c-0.297-0.146-0.585-0.303-0.914-0.445c-0.625-0.232-1.505-0.324-2.374-0.368
			c-2.276-0.13-4.393,0.158-6.637,0.044c-0.446-0.027-0.915-0.125-1.298-0.087c-0.688,0.06-1.095,0.457-1.745,0.517
			c-1.432,0.094-2.794-0.418-3.963-0.716c-1.245-0.318-2.677-0.504-4.146-0.271c-2.609,0.433-4.785,1.535-7.38,2.008
			c-2.02,0.367-4.161,0.461-5.775,1.213c-0.54,0.248-0.912,0.659-1.487,0.88c-1.15,0.433-2.541,0.61-3.521,1.16
			c-0.707,0.39-1.425,0.938-2.043,1.47c-0.197,0.153-0.453,0.473-0.631,0.521c-0.247,0.093-0.495,0.066-0.702,0.133
			c-0.213,0.09-0.396,0.175-0.591,0.266c-1.119,0.611-1.817,1.517-2.866,2.273c-0.71,0.516-1.369,0.911-1.921,1.488
			c-1.657,1.782-2.83,3.951-4.065,6.178c-0.574,1.028-1.279,2.252-1.335,3.802c-0.015,0.528-0.063,1.158,0.085,1.615
			c0.24,0.823,1.495,1.386,1.018,2.584c-0.572-0.085-0.544-0.784-0.845-1.137c-0.768,0.882-0.324,2.983-0.788,4.182
			c-0.531-1.142-0.356-3.08,0-4.201c-1.505,1.541-2.547,3.337-3.222,5.618c-0.326,1.135-0.533,2.358-0.592,3.75
			c-0.025,0.741-0.02,1.414-0.104,2.065c-0.081,0.599-0.324,1.136-0.484,1.712c-0.359,1.272,0.034,2.564,0.533,3.535
			c0.262,0.517,0.474,0.984,0.753,1.408c0.257,0.438,0.665,0.772,1.093,1.083c1.454,1.062,3.574,1.578,5.123,2.507
			c0.222,0.141,0.43,0.333,0.651,0.444c0.321,0.133,0.666,0.219,1.009,0.346c1.617,0.643,3.219,1.333,5.143,1.623
			c0.755,0.119,1.582,0.128,2.435,0.292c1.408,0.251,2.936,0.679,4.428,0.991c0.798,0.159,1.594,0.242,2.422,0.289
			c0.46,0.021,0.886,0.004,1.288,0.066c0.368,0.038,0.666,0.23,1.036,0.32c0.394,0.108,0.896,0.12,1.386,0.153
			c1.45,0.114,3.111,0.355,4.485,0.469c4.169,0.307,7.459,0.255,9.557,0.179c1.396-0.049,3.38-0.215,4.721-0.31
			c1.376-0.108,2.744-0.224,4.126-0.286c1.409-0.07,2.823-0.123,4.299-0.123c2.891,0,5.865,0.243,8.59-0.032
			c1.338-0.141,2.59-0.359,3.845-0.533c2.555-0.336,5.817-0.46,8.352-0.084c1.288,0.181,2.461,0.482,3.713,0.702
			c3.825,0.694,8.775-0.035,12.103-0.92c0.561-0.149,2.283-0.881,2.766-1.122c1.959-1.05,3.889-1.345,5.632-3.374
			c1.406-0.923,1.732-2.141,1.959-3.881C153.824,82.876,153.542,81.482,152.938,80.271"/>
	</g>
	<g>
		<g>
			<g>
				<g>
					<path d="M82.333,116.331h-5.171l-2.812-5.299H62.208l-1.648,3.049l-4.397-1.398l9.784-18.068l0.428-0.129l2.878-0.868
						l0.859-0.261L82.333,116.331z M64.53,106.628h7.483l-3.706-6.955L64.53,106.628z"/>
				</g>
				<g>
					<path d="M111.483,116.331H98.542c-1.3,0-2.479-0.38-3.335-1.08c-0.94-0.769-1.433-1.863-1.433-3.159v-2.121l4.99-1.41v3.198
						h12.491v-4.688H98.905c-1.299,0-2.483-0.384-3.331-1.075c-0.938-0.772-1.438-1.86-1.438-3.158v-5.33
						c0-1.281,0.501-2.368,1.438-3.134c0.848-0.697,2.034-1.076,3.331-1.076h12.578c2.812,0,4.771,1.73,4.771,4.21v2.041
						l-4.966,1.414V97.87H99.124v4.656h12.279c1.279,0,2.46,0.37,3.334,1.033c0.983,0.765,1.518,1.845,1.518,3.124v5.408
						c0,1.296-0.503,2.391-1.45,3.159C113.948,115.951,112.776,116.331,111.483,116.331z"/>
				</g>
			</g>
			<path d="M185.527,116.331h-20.61V93.296h20.443v4.574h-15.448v4.742h9.121v4.519h-9.121v4.628h15.615V116.331z"/>
			<path d="M142.858,116.331h-5.023V97.87h-8.836v-4.574h22.952v4.574h-9.093V116.331z"/>
			<path d="M38.021,116.331H25.387c-1.315,0-2.471-0.366-3.33-1.063c-0.938-0.762-1.438-1.855-1.438-3.145V97.507
				c0-1.281,0.5-2.368,1.438-3.134c0.85-0.697,2.035-1.076,3.33-1.076h12.635c2.811,0,4.771,1.73,4.771,4.21v4.025l-4.989,1.585
				V97.87H25.615v13.889h12.189v-4.913l4.989,1.588v3.689c0,1.289-0.503,2.379-1.454,3.145
				C40.497,115.957,39.32,116.331,38.021,116.331z"/>
		</g>
	</g>
</g>
<g>
	<path fill="none" d="M183.069,103.033c0,44.111-35.764,79.877-79.88,79.877c-44.114,0-79.876-35.766-79.876-79.877
		c0-44.118,35.762-79.878,79.876-79.878C147.306,23.155,183.069,58.916,183.069,103.033z"/>
	<text transform="matrix(0.3206 0.9472 -0.9472 0.3206 26.2344 124.8818)"><tspan x="0" y="0" font-family="'Courier New'" font-size="13.2578">Q</tspan><tspan x="13.303" y="-0.45" font-family="'Courier New'" font-size="13.2578" rotate="-9.599">U</tspan><tspan x="26.329" y="-3.104" font-family="'Courier New'" font-size="13.2578" rotate="-19.123">A</tspan><tspan x="38.745" y="-7.878" font-family="'Courier New'" font-size="13.2578" rotate="-28.608">L</tspan><tspan x="50.218" y="-14.643" font-family="'Courier New'" font-size="13.2578" rotate="-38.121">I</tspan><tspan x="60.415" y="-23.212" font-family="'Courier New'" font-size="13.2578" rotate="-47.696">T</tspan><tspan x="69.041" y="-33.36" font-family="'Courier New'" font-size="13.2578" rotate="-57.32">Y</tspan><tspan x="75.845" y="-44.8" font-family="'Courier New'" font-size="13.2578" rotate="-66.883"> </tspan><tspan x="80.657" y="-57.188" font-family="'Courier New'" font-size="13.2578" rotate="-76.288">P</tspan><tspan x="83.378" y="-70.227" font-family="'Courier New'" font-size="13.2578" rotate="-85.867">R</tspan><tspan x="83.889" y="-83.522" font-family="'Courier New'" font-size="13.2578" rotate="-95.48">O</tspan><tspan x="82.17" y="-96.723" font-family="'Courier New'" font-size="13.2578" rotate="-105.045">D</tspan><tspan x="78.285" y="-109.459" font-family="'Courier New'" font-size="13.2578" rotate="-114.552">U</tspan><tspan x="72.358" y="-121.369" font-family="'Courier New'" font-size="13.2578" rotate="-124.04">C</tspan><tspan x="64.549" y="-132.137" font-family="'Courier New'" font-size="13.2578" rotate="-133.571">T</tspan><tspan x="55.049" y="-141.472" font-family="'Courier New'" font-size="13.2578" rotate="-143.181">S</tspan></text>
	<path fill="none" d="M192.563,102.946c0,49.425-40.069,89.487-89.495,89.487c-49.423,0-89.485-40.062-89.485-89.487
		c0-49.426,40.062-89.491,89.485-89.491C152.494,13.455,192.563,53.521,192.563,102.946z"/>
	<text transform="matrix(0.2433 -0.97 0.97 0.2433 31.0293 88.9043)"><tspan x="0" y="0" font-family="'Courier New'" font-size="13.2578">V</tspan><tspan x="11.432" y="0.275" font-family="'Courier New'" font-size="13.2578" rotate="9.019">I</tspan><tspan x="22.693" y="2.341" font-family="'Courier New'" font-size="13.2578" rotate="17.999">S</tspan><tspan x="33.486" y="6.133" font-family="'Courier New'" font-size="13.2578" rotate="26.902">U</tspan><tspan x="43.593" y="11.569" font-family="'Courier New'" font-size="13.2578" rotate="35.807">A</tspan><tspan x="52.712" y="18.481" font-family="'Courier New'" font-size="13.2578" rotate="44.72">L</tspan><tspan x="60.65" y="26.724" font-family="'Courier New'" font-size="13.2578" rotate="53.705"> </tspan><tspan x="66.447" y="34.852" font-family="'Courier New'" font-size="13.2578" rotate="61.579">S</tspan><tspan x="71.646" y="45.039" font-family="'Courier New'" font-size="13.2578" rotate="70.549">T</tspan><tspan x="75.208" y="55.939" font-family="'Courier New'" font-size="13.2578" rotate="79.364">I</tspan><tspan x="77.055" y="67.242" font-family="'Courier New'" font-size="13.2578" rotate="88.312">M</tspan><tspan x="77.118" y="78.674" font-family="'Courier New'" font-size="13.2578" rotate="97.328">U</tspan><tspan x="75.384" y="89.996" font-family="'Courier New'" font-size="13.2578" rotate="106.325">L</tspan><tspan x="71.899" y="100.914" font-family="'Courier New'" font-size="13.2578" rotate="115.256">A</tspan><tspan x="66.769" y="111.153" font-family="'Courier New'" font-size="13.2578" rotate="124.14">T</tspan><tspan x="60.13" y="120.464" font-family="'Courier New'" font-size="13.2578" rotate="133.037">I</tspan><tspan x="52.115" y="128.647" font-family="'Courier New'" font-size="13.2578" rotate="142.016">O</tspan><tspan x="42.926" y="135.474" font-family="'Courier New'" font-size="13.2578" rotate="151.043">N</tspan></text>
</g>
</svg>
