<?xml version="1.0" encoding="utf-8"?>
<!-- Generator: Adobe Illustrator 15.0.0, SVG Export Plug-In . SVG Version: 6.00 Build 0)  -->
<!DOCTYPE svg PUBLIC "-//W3C//DTD SVG 1.1//EN" "http://www.w3.org/Graphics/SVG/1.1/DTD/svg11.dtd">
<svg version="1.1" id="Layer_1" xmlns="http://www.w3.org/2000/svg" xmlns:xlink="http://www.w3.org/1999/xlink" x="0px" y="0px"
	 width="600px" height="500px" viewBox="0 0 600 500" enable-background="new 0 0 600 500" xml:space="preserve">
<g>
	<g>
		<g id="a9f1Qs_3_">
			<g>
				<path fill-rule="evenodd" clip-rule="evenodd" fill="#1C1B1C" d="M287.682,262.079c1.729-0.117,2.35,0.867,4.289,0.549
					c0.785,1.43,0.536,3.838,1.963,5.393C290.652,267.476,288.171,265.411,287.682,262.079z"/>
				<path fill-rule="evenodd" clip-rule="evenodd" fill="#1C1B1C" d="M355.475,290.573c-1.731,3.098-5.062,6.551-8.188,8.307
					c-1.72,0.967-5.555,2.949-9.185,3.369c-2.297,0.207-5.171,0.113-6.987-0.256c-9.741-1.998-15.812-7.734-19.512-16.133
					c-4.849-11.828-5.168-20.969-4.151-17.066c1.685,3.334,8.036,13.006,15.231,15.715c-4.157-3.873-7.427-5.357-12.539-19.795
					c-0.779-2.215-4.225-14.584,0.211-8.602c4.79,7.471-6.457-21.158,6.041,1.4c-1.116-5.883-4.321-12.865-6.188-16.551
					c-4.11-8.092-11.61-13.689-11.32-18.164c2.051,4.465,3.507,3.438,8.596,10.135c-0.425-4.98-2.312-10.471-4.898-13.299
					c-1.011-1.191-1.31-1.391-1.564-2.314c-0.196-0.709,0.173-2.674,2.44-3.518c-1.228,0.012-3.618,0.404-3.791,0.41
					c-15.281,1.678-25.025,1.062-38.329-0.252c-0.832-0.086-1.125-0.139-1.526-0.191c0.384,1.154,1.298,1.023,1.31,1.428
					c0,0.873-3.39,1.965-3.797,2.572c2.979-0.094,4.934-1.1,4.934-1.1s-2.229,1.686-5.033,6.621
					c1.532,0.121,7.321-1.453,9.841-3.113c-3.817,3.416-6.325,9.342-11.402,14.018c-0.879,1.322-1.649,2.021-2.276,2.576
					c-6.812,6.188-0.803,1.846,1.245,0.275c8.429-5.951,14.271-16.756,25.017-20.389c-12.053,7.322-14.027,27.709-24.24,36.211
					c-3.75,6.24-3.243,7.891-3.779,12.174c0.272,2.531-2.024,0.357-0.952,5.41c-0.223,0.229-1.187-0.896-1.714-0.768
					c-1.063,2.133,1.723,4.641,1.066,7.281c-0.841-0.035-1.74-2.631-2.531-2.719c-1.89,3.053,0.413,5.621,0.841,8.908
					c-1.875-1.119-1.939-2.35-3.908-3.375c-0.378,3.885,1.641,4.893,2.142,7.902c-2.625-3.949-3.185-5.096-5.449-9.404
					c-0.463-0.889-4.046-8.184-4.512-9.07c-0.442,0.682,1.504,5.988,1.639,6.641c0.293,1.453,0.787,2.559,1.338,3.656
					c0.809,1.623,1.556,3.258,1.758,4.92c-1.324-1.758-2.071-1.992-2.664-3.076c-0.689-1.236-1.705-2.453-1.934-2.221
					c0.674,0.891,0.854,2.281,1.152,3.547c-3.369-4.279-5.968-10.402-8.435-16.18c-1.934-8.143-4.95-18.645-4.148-29.172
					c-2.724,2.025-3.386,10.428-7.194,15.188c-0.488-0.787,0.545-3.152,1.013-8.926c0.179-4.705,0.374-7.184-0.732-8.572
					c-1.044-1.311-3.375,5.176-3.253,1.547c1.98-11.836,3.852-7.979,5.614-18.639c0.782-4.723-0.38-4.973-0.217-5.538
					c0.729-2.504,1.784-4.201,3.313-6.39c0.27-0.389,1.286-1.187,2.265-0.931c0.046-0.253,0.446,0.034,0.454-0.115
					c-4.496-2.217-7.04-3.269-9.826-6.442c-0.926-1.06-2.441-5.534-2.083-3.632c0.11,3.029-0.744,6.653-1.453,9.486
					c-0.384,1.525-1.233,6.103-1.242,6.981c-0.094,2.58,0.772,5.018,1.187,6.551c0.611,2.246,0.811,3.166,0.18,4.783
					c-0.48,0.902-2.115,6.686-2.404,9.533c-1.191,11.641,8.045,18.713,8.297,28.205c0.082,3.119-0.602,5.65-0.415,8.158
					c0.419,5.729,6.845,9.855,7.74,15.352c0.006,0.326-0.235,0.408-0.138,0.826c0.765,2.051,5.611,7.705,5.809,7.469
					c13.135,7.781,11.799,2.023,23.148,6.738c3.419,2.391,6.647,7.197,9.24,9.27c1.497,1.221,2.587,2.016,4.271,2.525
					c-0.548-0.42-1.236-1.246-1.392-1.475c-0.902-1.312-1.228-2.299-1.986-4.441c-0.437-1.23-1.737-5.51-2.953-7.412
					c-3.319-5.309-6.466-4.93-7.099-11.422c-0.073-1.023,0.229-2.654,0.551-4.014c1.122-7.957-2.048-16.838,0.554-24.475
					c3.478-6.943,7.257-13.582,11.062-20.189c2.493-7.834,8.112-16.303,13.805-20.932c0.146,1.482-2.42,4.666-3.706,5.721
					c-7.819,4.723-9.188,18.467-9.847,25.729c-9.17,8.717-6.009,29.107-1.081,39.814c2.124,6.879,4.506,11.074,4.494,16.102
					c-0.003,1.047-0.059,4.861-0.352,5.857c-0.035,0.254-0.108,0.512-0.185,0.756c-0.023,0.07-0.044,0.137-0.079,0.205
					c-0.053,0.219-0.126,0.428-0.164,0.646c-0.003,0.027-0.006,0.045-0.006,0.07c-0.003,0.018-0.003,0.039-0.009,0.057
					c1.269,0.26,2.648,0.189,4.184-0.602c2.725-1.559,4.342-3.932,4.521-5.449c0.387-0.193,13.415,3.742,23.856,3.029
					c8.569,6.432,21.882,9.674,26.666,9.232c-19.983-4.084-38.918-20.295-34.989-46.184c-1.072,0.176-2.358,0.793-3.325,1.072
					c-5.323,0.436-6.272-3.498-7.465-7.195c-7.553-3.186-14.177-11.096-13.553-23.643c0.284-3.115,2.08-3.527,2.909-4.633
					c0.19,1.617-0.627,5.289-0.319,8.285c1.037,7.354,5.06,15.18,11.265,18.105c0.756-2.469-1.307-5.141-2.933-6.131
					c-0.483,0.02-0.328,0.68-0.967,0.553c-3.214-4.77-7.506-20.906-0.551-23.648c0.354,0.75,0.146,2.062,0.413,2.904
					c1.954-0.58,1.679-3.391,3.457-4.146c0.762,2.795,2.637,6.977,5.458,7.744c0.138-6.221-3.642-8.543-5.777-12.492
					c-5.039-0.871-8.35,6.148-12.193,9.035c0.814-6.016,4.813-11.049,10.96-12.086c-0.595-2.715-0.343-6.764,1.816-7.729
					c2.235,11.156,7.219,13.219,7.397,19.199c-0.416,5.947,0.823,10.004-0.208,20.416c-2.455-1.346-4.887-4.267-4.4-7.42
					c0.439-2.842,2.279-3.244,2.528-8.18c-1.796,1.107-7.825-5.266-8.344-0.193c-0.914,7.389,3.349,17.674,11.2,19.494
					c1.315-7.012,0.747-15.555,1.104-22.873c4.348,8.57,4.852,22.674,4.611,33.859c-0.226,10.723,5.833,22.74,13.096,29.168
					c8.637,7.514,24.287,12.504,32.915,9.225c-6.299-1.168-14.947-1.824-20.057-7.109c2.021,0.662,5.795,1.672,8.212,2.053
					c11.757,1.844,15.085-0.758,16.219-1.666c1.939-1.547,2.95-2.807,4.02-4.641C353.723,295.704,354.464,293.878,355.475,290.573z
					 M280.076,266.085c3.079,7.289,4.925,9.539,10.925,11.338c-0.935,6.551,0.565,13.021,3.732,17.701
					c-0.812,0.27-3.844-2.162-4.679-2.32c-1.315,2.145,2.795,6.277,3.571,8.543c-3.422-0.545-4.163-3.766-7.465-4.43
					c-0.935-1.898-2.528-4.639-1.521-7.188c-2.317-3.447-5.408-8.17-4.564-13.412c1.479,1.979,1.603,5.312,4.011,6.357
					c-0.592-3.322-6.261-10.787-8.083-13.344c-1.544,11.029,3.527,26.625,7.667,34.777c-0.706,0.018-2.136-0.916-2.502-1.4
					c-1.474-1.941-0.949-3.662-3.167-8.555c-4.213-11.057-13.74-23.531-8.294-38.855c0.22-0.033,0.237,0.131,0.413,0.141
					C272.479,259.95,276.306,262.987,280.076,266.085z"/>
				<path fill-rule="evenodd" clip-rule="evenodd" fill="#1C1B1C" d="M218.406,227.923"/>
			</g>
		</g>
	</g>
	<path fill-rule="evenodd" clip-rule="evenodd" fill="#1C1B1C" d="M393.139,191.68c0.097,0,0.188,0,0.278,0
		c1.655,6.046,0.504,8.812,2.669,16.493c2.511,8.895,0.782,13.182,0.894,17.33c0.082,3.117,0.838,4.613,0.504,7.49
		c-0.835,7.143-1.122,9.08-1.397,13.541c0.504,9.754,10.588,20.824,2.578,24.721c-2.868,0.631-7.512-1.338-9.422,1.697
		c-1.605,1.471,1.474,4.959-0.87,7.965c-0.973,1.252-3.123,2.654-4.866,3.832c1.4,0.086,2.446,0.727,2.593,1.873
		c-0.029,2.965-2.086,3.51-3.1,8.328c-1.072,4.881,3.99,6.607,1.67,11.25c-2.323,4.406-5.915,8.479-10.356,9.105
		c-3.706,0.525-8.455,0.299-13.796,1.488c-8.045,1.793-7.91,0.908-13.406,1.412c-1.685,0.197-0.111-0.662,1.31-2.123
		c6.366-6.551,6.853-8.461,7.975-10.553c4.55-8.52,6.038-17.525,8.625-28.658c2.312-9.955,7.831-27.725,11.136-33.883
		c-9.521,18.461-19.685,53.23-41.651,55.486c8.895-4.014,14.687-9.895,20.332-18.971c0.202-0.324,0.85-1.168,1.608-2.551
		c-1.872,1.652-3.366,3.229-6.272,4.33c8.215-7.846,11.9-14.596,13.942-19.199c6.598-14.838,14.399-34.717,19.629-42.553
		c-19.482,18.676-9.094,30.457-33.064,53.695c7.151-8.107,9.565-11.934,12.688-21.115c1.509-4.426,1.058-4.232,2.215-7.33
		c0.92-2.479,0.164-3.967,1.102-5.824c1.503-6.674,9.428-21.229,6.357-16.15c-7.008,11.615-4.312,4.42-12.448,21.492
		c3.612-13.957,9.012-21.076,10.233-23.197c-3.598,4.359-5.962,7.15-10.872,10.32c-6.861,4.439-0.237-0.26,6.642-9.727
		c-6.964,6.051-5.432,2.273-3.261,0.041c2.136-2.203-1.781-0.635-1.781-0.635s4.755-3.109,6.8-4.623
		c-4.805,2.332-14.303,5.146-14.303,5.146l7.5-5.713c0,0-20.124,7.775-19.913,7.629c5.399-4.617,7.995-6.693,13.26-8.879
		c-1.207,0-22.312,5.49-22.312,5.49l13.875-6.596c0,0-9.059,1.729-13.075,3.918c-0.311-0.223,1.474-1.734,1.474-1.734l1.21-0.678
		l-6.609,1.383c0,0,3.621-3.061,5.531-3.047c-0.545,0.016-2.399-0.17-4.459,0.508c-1.553,0.512-3.653,1.385-4.553,1.807
		c-2.886,1.359-2.402,1.006-1.898,0.672c15.026-9.824,24.99,0.049,41.713-3.121C375.024,211.681,394.372,208.551,393.139,191.68z
		 M367.398,278.784c0.293,14.561-6.469,32.168,6.981,31.135c1.983-0.656,5.675-2.004,5.227-5.74
		c-1.594-6.428-1.822-12.939,3.334-16.371c-3.51-3.717-8.109,2.676-11.104,1.547c2.2-2.59,3.987-3.98,5.599-4.529
		c2.268-0.768,2.681-0.674,5.25-2.836c0.7-0.592,3.814-3.342,5.777-3.582c0,0,0.111-1.773-1.898-2.641
		c-2.074-0.898-7.731-1.893-8.238-0.258c-1.983,2.854-4.608,3.785-7.819,4.957c-0.205-1.127,0.756-2.244,1.245-2.902
		c6.718-12.791,9.68-13.646,9.817-12.725c-1.345,1.48-1.579,5.746,0.598,6.836c2.522-4.611,8.517-5.201,14.021-3.145
		c5.423,1.74,2.854-4.822,0.979-9.234c-2.646-6.217-7.263-14.402-9.645-13.928C376.097,248.226,369.013,268.944,367.398,278.784z"/>
	<path fill="#1C1B1C" stroke="#1C1B1C" stroke-width="0.75" stroke-miterlimit="10" d="M388.387,187.461
		c-1.04-2.071-2.886-3.873-3.211-6.613c-0.349-2.88-0.694-4.892-3.103-6.765c-0.319,0.092-0.715,0.221-1.122,0.114
		c-0.357-1.206-0.853-2.451-1.644-3.178c-0.111-0.1-0.249-0.164-0.337-0.299c-0.167-0.106-0.258-0.293-0.372-0.449
		c-0.483-0.231-1.269-0.163-1.646,0.036c-1.576,0.825-0.867,4.628-1.119,6.69c0.756,0.264,1.462,0.422,2.13,0.71
		c0.656,0.286,1.31,0.878,1.904,1.197c0.026,0.196,0.231,0.22,0.226,0.448c1.729,0.587,1.239,3.393,3.697,3.249
		c0.17,0.572,0.439,1.067,0.712,1.57c0.27,0.502,0.539,1.034,0.674,1.57c-1.623,0.244-1.148-1.596-2.244-1.795
		c-0.451-0.08-0.92,0.17-1.195,0.448c-0.958,0.96-1.582,3.126-2.391,4.333c-0.322,0.48-0.665,0.823-1.125,1.125
		c0.595,0.849,0.697,2.193,2.057,2.279c-1.198,1.713-3.659,2.37-4.743,4.072c-0.466-2.312,1.746-2.549,2.798-3.587
		c-0.346-0.969-0.858-2.144-0.56-3.515c0.035,0.132,0.12,0.207,0.19,0.301c0.056-2.888,3.469-3.785,2.915-7.101
		c-0.164-0.943-0.741-1.975-1.046-2.728c-0.138-0.023-0.258-0.067-0.375-0.112c-0.243-0.34-0.636-0.604-1.049-0.785
		c-2.057-0.911-5.256-1.002-8.071-0.823c0.378-0.662,0.996-1.024,2.019-1.192c0.943-0.158,2.136-0.096,2.654-0.638
		c0.413-0.431,0.366-1.284,0.035-1.793c-0.706-1.107-2.212-1.649-3.621-2.019c-1.544-0.402-3.39-0.347-4.746,0.301
		c-2.566,1.22-3.905,3.788-3.478,7.621c-2.291,0.299-3.346,1.354-4.148,3.138c-1.157,2.586-1.872,5.473-5.379,5.533
		c0.586-2.306,4.526-2.176,3.809-5.309c-2.795-0.038-4.556,1.081-6.313,2.058c-0.202,0.113-0.554,0.434-0.785,0.113
		c0.103-0.431,0.56-0.705,0.896-0.937c2.599-1.776,6.398-2.321,9.006-4.034c0.457-0.511,0.832-0.908,1.271-1.346
		c0.416-0.422,0.855-0.967,0.935-1.681c0.123-1.12-0.372-1.94-0.076-2.953c0.167-0.566,1.192-1.243,1.717-1.606
		c1.96-1.35,4.175-2.384,4.673-4.971c1.163,1.402,1.292,3.841,4.151,3.55c-0.208-2.478-1.301-4.025-2.467-5.606
		c-0.176-0.229-0.539-0.476-0.302-0.707c0.193-0.193,0.554,0.165,0.785,0.334c1.752,1.292,2.566,3.519,2.95,6.054
		c1.462-0.707,2.663-1.674,3.63-2.878c0.621,0.303,0.946,0.896,1.644,1.123c0.141,0.295,0.437,0.45,0.671,0.67
		c0.568,0.543,0.914,1.386,1.307,2.057c0.062,0.109,0.135,0.323,0.261,0.3c-0.565-1.992-1.474-3.867-2.877-5.046
		c-0.193-0.163-0.551-0.372-0.633-0.521c-0.097-0.17-0.091-0.471-0.152-0.712c-0.407-1.695-0.996-2.961-2.057-3.998
		c-1.726-0.874-3.735-1.469-4.219-3.587c1.708,0.259,2.209,2.89,3.888,3.18c-0.876-2.567-1.972-5.581-4.957-8.301
		c1.301,2.022-0.094,4.761-1.995,4.972c-0.003,0.663,0.601,0.915,0.671,1.383c-1.477,0.206-2.188,1.8-3.958,1.234
		c0.258-1.905,2.417-1.846,2.358-4.072c1.79,0.524,1.834,0.063,2.546-0.953c0.135-0.189,0.439-1.165,0.316-2.212
		c-0.006-0.031-0.457-1.113-1.017-1.095c-0.419,0.017-1.11-1.035-1.424-1.635c-1.107-2.124-2.209-2.572-4.503-3.719
		c-2.25-1.127-4.017-3.088-6.756-4.034c-1.714-0.594-3.885-0.702-4.219-0.72c-2.062-3.818-7.037-6.2-11.332-7.756
		c-2.124-0.772-4.207-1.637-6.352-2.504c-2.062-0.838-4.752-1.574-7.512-0.936c-0.56-1.025-1.116-1.945-1.98-2.651
		c-2.13-1.746-6.366-1.444-9.012-2.578c-0.527-0.23-1.043-0.533-1.6-0.75c-1.04-0.398-2.546-0.55-3.999-0.635
		c-3.888-0.227-7.485,0.252-11.285,0.076c-0.759-0.036-1.526-0.215-2.209-0.152c-1.146,0.108-1.84,0.776-2.95,0.86
		c-2.438,0.19-4.755-0.686-6.727-1.195c-2.142-0.554-4.564-0.853-7.061-0.447c-4.436,0.718-8.118,2.592-12.521,3.4
		c-3.437,0.633-7.084,0.769-9.826,2.055c-0.888,0.418-1.556,1.125-2.502,1.496c-1.945,0.756-4.333,1.075-5.979,1.979
		c-1.222,0.673-2.438,1.564-3.475,2.469c-0.328,0.279-0.776,0.833-1.084,0.932c-0.428,0.136-0.841,0.114-1.195,0.224
		c-0.369,0.116-0.674,0.269-1.011,0.45c-1.896,1.023-3.079,2.561-4.86,3.85c-1.194,0.865-2.331,1.556-3.251,2.54
		c-2.824,3.032-4.811,6.706-6.908,10.5c-0.968,1.746-2.184,3.812-2.281,6.429c-0.034,0.917-0.081,1.982,0.15,2.765
		c0.416,1.412,2.543,2.385,1.719,4.409c-0.978-0.146-0.925-1.323-1.422-1.944c-1.311,1.505-0.557,5.076-1.344,7.101
		c-0.901-1.936-0.605-5.226,0-7.139c-2.548,2.631-4.324,5.677-5.457,9.53c-0.57,1.941-0.914,4.046-1.008,6.39
		c-0.05,1.256-0.039,2.394-0.186,3.515c-0.135,1-0.549,1.929-0.824,2.913c-0.604,2.161,0.052,4.358,0.896,5.981
		c0.457,0.876,0.824,1.703,1.271,2.429c0.451,0.728,1.163,1.315,1.869,1.829c2.487,1.811,6.082,2.672,8.707,4.26
		c0.384,0.233,0.732,0.559,1.119,0.749c0.517,0.25,1.124,0.378,1.683,0.596c2.765,1.086,5.467,2.261,8.744,2.766
		c1.31,0.201,2.704,0.226,4.148,0.486c2.411,0.434,4.983,1.165,7.512,1.684c1.359,0.276,2.713,0.416,4.107,0.484
		c0.794,0.038,1.512,0.021,2.209,0.111c0.615,0.081,1.119,0.395,1.755,0.562c0.68,0.18,1.518,0.197,2.355,0.261
		c2.449,0.18,5.273,0.61,7.629,0.785c7.052,0.522,12.65,0.432,16.198,0.309c2.388-0.083,5.769-0.341,8.045-0.524
		c2.32-0.185,4.635-0.384,6.99-0.484c2.405-0.107,4.813-0.195,7.324-0.195c4.887-0.001,9.946,0.415,14.575-0.076
		c2.25-0.238,4.415-0.601,6.571-0.896c4.321-0.589,9.823-0.794,14.165-0.15c2.142,0.317,4.163,0.812,6.278,1.195
		c6.51,1.185,14.921-0.066,20.54-1.559c0.958-0.252,3.896-1.479,4.723-1.915c3.357-1.779,6.615-2.286,9.56-5.719
		c2.402-1.573,2.953-3.645,3.363-6.58C389.904,191.878,389.433,189.538,388.387,187.461z M366.971,184.807
		c0.917-0.759,2.036-1.589,1.869-3.214c-0.021-0.252-0.144-0.29-0.108-0.522c0.064-0.208,0.24-0.287,0.451-0.148
		c0.627,0.421,0.413,2.844,0.709,3.664c3.155,0.206,4.688-1.215,7.213-1.646c0.038,0.177-0.164,0.379-0.305,0.56
		c-1.23,1.652-4.315,1.655-6.349,2.579c1.137,1.399,1.975,3.603,1.717,6.093c-0.19,1.872-0.814,3.215-1.904,4.073
		c-0.372,0.293-0.814,0.428-1.307,0.671c-0.126,0.061-0.319,0.237-0.486,0.225c-0.536-0.037-0.352-0.854,0.188-0.671
		c2.739-1.247,3.738-9.346-0.823-9.381c-1.26-0.011-1.345,0.976-2.651,1.009C365.154,186.426,365.978,185.636,366.971,184.807z
		 M363.892,151.457c3.565,1.626,3.668,4.421,3.612,6.112c-0.574-3.227-1.819-4.887-5.745-5.901
		c-1.942-0.501-3.475-3.167-5.098-4.526c-0.48-0.406-1.251-0.98-1.907-1.01c-0.533-0.021-0.955,0.211-1.529,0.149
		c-2.52-0.27-3.267-2.953-4.708-4.409c2.241,0.161,2.449,2.681,4.409,3.252c0.404-0.521,0.114-0.616-0.082-1.009
		c-0.029-0.199-0.176-0.176-0.237-0.437C361.047,147.236,359.049,149.485,363.892,151.457z M353.225,161.864
		c-0.311-0.059-0.199-0.391-0.264-0.748c-0.12-0.665-0.606-1.348-0.858-2.13c-0.255-0.784-0.419-1.569-0.375-2.575
		c0.114-0.044,0.302,0.188,0.451,0.334c0.161,0.162,0.319,0.352,0.483,0.449c0.583-0.171,1.386-1.096,1.945-1.459
		c0.135-0.085,0.548-0.054,0.598,0.228c0.067,0.414-0.463,0.549-0.674,0.782c-0.369,1.094-0.858,2.608-0.858,3.999
		C353.673,161.146,353.872,161.986,353.225,161.864z M343.396,148.449c0.053-0.8,0.331-1.371,0.598-1.794
		c0.557,2.147,0.665,4.738,1.831,6.279c2.396,0.352,4.661,0.846,5.268,2.988c-1.002-0.432-2.32-1.562-3.735-1.72
		c-1.022-0.114-1.553,0.363-1.793,1.157c-1.494-0.549-2.259-2.028-3.328-2.875C343.724,152.339,343.284,150.122,343.396,148.449z
		 M329.011,134.958c0.015,0.117-0.082,0.122-0.188,0.113c0.006-0.043-0.012-0.066-0.038-0.075
		C328.788,134.914,328.94,134.98,329.011,134.958z M312.938,127.896c1.11,0.156,2.452-0.389,3.404,0.074
		c-0.82,0.33-1.872,0.427-2.317,1.122c3.744,2.621,9.519,3.325,13.939,5.343c0.267,0.121,0.63,0.196,0.782,0.487
		c-1.389-0.349-3.404-0.598-4.857-0.152c-0.082-0.185,0.404-0.437,0.445-0.745c-3.826-1.89-8.467-2.962-12.961-4.186
		C312.083,129.386,312.798,128.928,312.938,127.896z M323.553,134.923c-0.015-0.114,0.12-0.079,0.185-0.112
		C323.761,134.925,323.661,134.928,323.553,134.923z M320.863,145.909c0.179,0.301,0.601,0.758,0.331,1.157
		c-0.454-0.033-0.683-0.502-0.967-0.785c-1.743-1.74-3.504-3.355-4.374-6.016c-0.138-0.419-0.161-0.899-0.334-1.383
		c-0.132-0.375-0.68-0.793-1.049-1.121c-1.137-1.015-2.487-1.935-2.763-3.589c1.151-0.155,1.79,1.01,2.464,1.684
		c1.682,1.682,3.554,3.633,5.01,5.306C318.142,143.16,320.078,144.587,320.863,145.909z M250.498,136.864
		c0.056,0.93,0.328,1.638,0.337,2.617c-1.339,0.243-3.211,0.438-4.298,1.195c-0.173,0.122-0.337,0.322-0.486,0.299
		c-0.34-0.057-0.132-0.346-0.114-0.598c0.029-0.361-0.17-0.855-0.223-1.195C247.853,138.956,249.165,137.898,250.498,136.864z
		 M244.22,145.422c-0.029-0.421-0.123-0.922-0.334-1.307c-0.431-0.77-1.418-1.014-1.535-2.168c1.216-0.105,1.869,0.672,2.203,1.568
		c-0.105-0.779,0.428-1.608,0.75-1.979c0.1-0.116,0.27-0.193,0.448,0c-0.021,0.319-0.164,0.812-0.111,1.383
		c0.199,2.142,2.769,2.509,4.034,3.771c2.701,2.701,1.058,9.087,3.064,12.521c-4.354-1.438-2.405-9.182-5.979-11.398
		c-0.691,2.554-3.354,3.275-4.298,5.568c-0.199,0.486-0.258,1.044-0.483,1.606C241.167,151.165,244.483,149.125,244.22,145.422z
		 M218.958,188.022c2.896-0.718,4.821-2.404,7.622-3.216c-0.665-0.842-0.697-2.494-0.815-4.032c-0.057-0.07-0.087-0.166-0.063-0.278
		c0.009-0.044,0.021-0.088,0.029-0.132c-0.038-0.409-0.085-0.802-0.155-1.16c-2.352-0.093-3.584-1.655-6.243-1.197
		c-0.048-0.126,0.153-0.317,0.3-0.484c0.283-0.33,0.685-0.673,1.271-0.712c1.54-0.104,3.128,1.374,4.559,0.823
		c0.104-0.038,0.192-0.096,0.275-0.157c-0.003-0.35,0.047-0.698,0.097-1.049c0.015-0.101,0.062-0.167,0.123-0.203
		c0.357-3.192,2.492-4.865,3.841-7.148v-0.299c0.093-0.07,0.176-0.119,0.246-0.169c0.183-0.361,0.352-0.733,0.486-1.113
		c0.022-0.071,0.041-0.144,0.05-0.212c0.057-0.359,0.067-0.816,0.038-1.347c-0.149-2.689-1.409-5.095-1.231-7.958
		c0.092-1.494,0.681-2.601,1.155-3.738c0.498-1.18,0.796-2.341,1.16-3.699c0.103,2.426-0.357,4.758-0.709,6.987
		c-0.34,2.156-0.609,4.936,0.187,6.878c0.338-0.129,0.592-0.445,0.934-0.638c2.114-1.178,5.611-1.034,7.698-2.277
		c0.187-1.895,0.765-3.397,1.456-4.784c-1.611-1.188-3.442-2.162-5.043-3.362c1.857-1.67-1.57-4.26-0.075-6.393
		c0.733-0.272,0.776,0.841,0.932,1.497c0.86,3.586,1.954,6.97,6.281,6.949c2.792,4.966,9.817,5.703,12.63,10.649
		c-1.752,3.046-2.681,6.914-6.126,8.261c0.958-2.739,3.779-4.075,4.031-7.55c0.149-2.038-1.151-2.817-2.464-3.662
		c-0.976-0.626-1.951-1.089-2.915-1.719c-1.075-0.7-1.688-1.397-2.543-2.093c-0.829-0.673-2.95-2.439-4.295-1.307
		c-1.116,0.936-0.653,3.592-1.419,4.969c-0.207,0.369-0.497,0.612-0.86,0.859c-3.851-0.388-6.61,0.755-8.019,3.088
		c-0.258,1.162-0.855,2.2-1.421,3.251c-0.581,1.829-1.131,3.686-2.146,5.078c-0.256,1.274-0.674,2.511-1.037,3.759
		c0.253,1.903,0.137,4.115,1.002,5.376c0.227,0.336,0.584,0.679,1.008,0.787c0.287,0.074,0.692,0.051,1.044,0.111
		c0.352,0.06,0.668,0.164,0.899,0.147c0.342-0.018,0.633-0.238,1.157-0.185c0.621,0.063,1.271,0.463,1.903,0.822
		c1.501,0.841,3.082,1.261,5.31,1.532c0.305,0.035,0.929,0.232,1.192,0.147c0.349-0.105,0.762-1.381,0.899-1.755
		c0.413-1.148,0.586-1.759,1.157-2.541c0.12-0.164,0.331-0.521,0.562-0.486c0.492,0.077,0.026,0.642-0.038,0.823
		c-0.442,1.239-0.826,3.774-0.114,4.894c0.196,0.311,0.387,0.368,0.565,0.674c-4.968,0.111-8.997-1.374-12.483-2.989
		c-0.384-0.178-0.621-0.374-1.046-0.263v-0.335c-0.38,0.045-0.7-0.09-0.974-0.114c-1.962-0.163-3.336,0.739-4.744,1.384
		C222.579,187.701,221.148,188.073,218.958,188.022z M244.07,163.956c-0.067,1.092-0.565,2.592-1.122,3.4
		c-0.674,0.979-1.649,1.348-3.025,1.457c0.4-0.419,0.91-0.549,1.271-0.971c0.844-0.993,0.946-2.331,1.942-3.287
		C243.37,164.328,243.742,164.149,244.07,163.956z M234.315,172.888c-0.043,0.357-0.271,0.754-0.072,1.269
		c-0.152-0.017-0.219-0.126-0.338-0.185c-0.317,1.498-0.068,3.566-0.147,5.306c-0.663-0.632-2.485-0.967-3.217-0.187
		c-0.39,0.421-0.281,0.932-0.671,1.347c-0.038-3.24,1.9-4.506,3.512-6.093c-0.096-0.153,0.059-0.328,0.037-0.521
		c0.123-0.021,0.176,0.023,0.264,0.035c-0.34-0.334,0.064-1.088-0.037-1.606c-0.008-0.081,0.131-0.015,0.184-0.037
		c0.099-1.175,0.743-1.803,1.049-2.767c0.625-0.123,1.154,0.288,1.756,0c0.021,0.136-0.14,0.261-0.225,0.338
		c-0.589,0.545-1.125,1.071-1.605,1.831c-0.176,0.275-0.425,0.582-0.488,0.861C234.291,172.601,234.337,172.738,234.315,172.888z
		 M232.636,197.328c-1.076-1.134-3.484-1.026-4.557-2.133c-0.181-0.185-0.254-0.437-0.414-0.596
		c-0.123-0.128-0.43-0.216-0.598-0.374c-0.135-0.132-0.716-0.63-0.971-0.601c-0.342,0.047-0.63,0.876-0.672,1.273
		c-0.09,0.809,0.162,1.749,0.335,2.241c0.1,0.278,0.417,0.539,0.224,0.861c-0.332,0.126-0.59-0.208-0.821-0.412
		c-1.518-1.336-1.903-5.397,0.598-6.018c0.1,1.019,0.956,1.367,1.57,1.944c0.118,0.109,0.151,0.279,0.263,0.372
		c0.688,0.595,1.835,0.952,2.69,1.422c0.501-1.504,0.249-3.762,0.374-5.641c0.03-0.009,0.033,0.012,0.036,0.033
		c0.265,0.164,0.499,0.255,0.673,0.448c0.818,0.926,0.107,2.648,0.264,4.148c0.105,1.057,1.203,1.699,1.529,2.394
		c0.232,0.494,0.176,1.069,0.186,1.72C233.042,198.065,232.944,197.652,232.636,197.328z M237.233,197.778
		c-0.299-0.111-0.6-0.274-0.862-0.34c-0.27-0.064-0.621,0.03-0.673-0.261c-0.098-0.598,0.576-0.315,0.824-0.263
		c0.41,0.091,0.816,0.032,1.197,0.078c2.684,0.305,4.569,1.354,6.277,2.726C241.882,199.3,239.247,198.523,237.233,197.778z
		 M257.972,205.024c-0.211,0.33-0.782-0.214-0.858-0.261c-0.354-0.214-0.65-0.299-0.899-0.451c-1.731-1.044-2.941-2.424-3.847-4.22
		c-2.065,0.438-3.337,1.674-5.01,2.503c-0.029,0.418-0.12,0.772-0.299,1.048c-0.381-0.349-0.855-0.727-0.709-1.421
		c0.211-1.001,2.429-1.388,3.287-1.833c0.501-0.255,1.043-0.668,1.459-1.082c0.419-0.422,0.905-0.995,0.858-1.684
		c-0.053-0.798-0.765-0.991-1.494-1.269c0.82-5.216-1.922-8.374-3.513-11.959c-0.519-1.167-1.172-2.631-1.195-4.073
		c-0.009-0.489,0.161-1.016,0.038-1.496c-0.149-0.563-0.984-0.965-1.529-1.193c-0.718-0.298-1.38-0.46-1.986-0.711
		c-1.304-0.534-2.531-1.129-3.993-1.383c-0.153-1.33-0.315-3.303-0.974-4.296c-0.145-0.217-0.707-0.486-0.486-0.823
		c0.244-0.372,0.822,0.147,0.822,0.413c2.857,2.049,3.506,6.306,8.483,6.237c-0.536-2.335,0.369-4.942,1.418-6.425
		c0.352-0.498,0.943-1.591,1.57-1.157c-0.34,2.03-1.925,3.016-1.942,5.268c-0.023,2.582,2.054,3.291,4.148,3.923
		c2.124,0.646,4.122,1.251,4.969,3.064c-2.687-0.812-4.811-2.516-8.669-2.279c-0.686,4.33,1.33,7.488,3.325,9.829
		c0.261,0.306,0.809,0.771,0.861,1.044c0.056,0.343-0.149,0.989-0.152,1.456c-0.015,3.014,1.887,4.661,2.241,7.402
		c0.062,0.446-0.085,0.971,0,1.533c0.103,0.664,1.11,1.576,1.57,1.978c0.343,0.301,0.671,0.579,0.973,0.823
		c0.311,0.252,0.598,0.6,0.935,0.822C257.708,204.576,258.221,204.638,257.972,205.024z M258.795,188.321
		c-0.026,0.589,0.076,1.257,0.296,1.755c0.117,0.261,0.299,0.334,0.302,0.748c-0.149,0.207-0.328,0.103-0.598,0.075
		c0.038-0.223-0.129-0.245-0.114-0.45c-1.459-1.665-2.801-3.65-4.187-5.269c4.444,0.721,7.761-1.074,9.12-4.034
		c0.384,0.962,1.644,1.047,2.241,1.793C263.424,184.238,258.938,184.855,258.795,188.321z M280.577,204.877
		c-0.164,0.051-0.319-0.164-0.407-0.264c-0.36-0.395-0.653-0.869-0.973-1.382c-0.308-0.489-0.888-1.521-1.535-1.644
		c-0.378-0.074-0.996,0.088-1.532,0.11c-3.416,0.15-7.904-0.898-10.274,0.748c0.141,0.313,0.211,0.571,0.372,0.972
		c0.062,0.147,0.381,0.804-0.185,0.786c-0.272-0.012-0.29-0.391-0.41-0.636c-0.334-0.669-0.706-1.492-0.785-2.356
		c-1.122-1.005-3.094-1.169-4.597-1.793c0.68-0.36,1.412-0.661,2.279-0.485c1.269,0.258,2.115,1.44,3.325,1.608
		c0.882,0.12,1.699-0.247,2.543-0.3c1.679-0.104,3.445,0.074,5.194,0.188c1.635,0.104,3.914,0.271,5.045-0.299
		c0.87-0.441,1.427-1.503,1.939-2.319c1.14-1.802,2.06-3.562,3.999-4.447c0.973-0.439,2.153-0.625,3.475-0.856
		c0.035-0.009,0.038,0.013,0.038,0.038c-2.092,0.918-3.686,2.194-4.969,3.923c-1.257,1.691-2.259,3.631-3.513,5.342
		C279.959,202.803,280.65,203.459,280.577,204.877z M332.67,204.613c-0.097-0.072-0.076-0.152-0.009-0.205
		c-0.87,0.237-1.33-0.743-1.934-1.102c-0.548-0.328-1.348-0.415-2.019-0.673c-1.808-0.698-3.554-2.084-5.344-2.728
		c-1.474-0.534-3.231-0.651-4.673-0.261c-1.392,0.374-2.253,1.222-3.249,2.091c-3.126-0.961-7.295-1.058-10.611-1.98
		c-0.393-0.108-1.087-0.459-1.383-0.41c-0.398,0.065-0.439,0.789-0.896,0.785c-0.308-0.003-0.533-0.541-0.712-0.861
		c-1.31-2.36-4.017-3.313-6.615-4.333c-0.882,0.504,0.088,1.781,0.188,2.502c0.255,1.838-0.835,3.117-1.793,4.075
		c-1.025,1.022-2.147,1.85-2.54,3.288c-1.438,0.94-1.969,2.665-3.999,2.988c-0.278,0.044-0.598-0.029-0.935,0.038
		c-0.196,0.037-0.425,0.246-0.636,0.336c-0.413,0.176-0.867,0.194-1.157,0.375c-0.34,0.209-0.645,0.894-1.233,0.709
		c-0.234-0.424,0.231-0.691,0.524-0.823c0.275-0.255,0.519-0.503,0.82-0.67c0.507-0.284,1.099-0.272,1.755-0.451
		c1.805-0.496,3.006-2.55,3.926-3.997c1.055-1.663,2.136-3.211,3.961-3.961c0.146-3.322-0.896-5.455-2.355-7.175
		c-2.563,0.566-4.43-0.916-6.612-1.494c-2.353-0.627-4.037,0.487-6.202,0.636c-0.211,0.013-0.501,0.015-0.674,0
		c-1.708-0.161-2.414-1.875-4.148-2.019c-2.443-0.205-3.27,1.738-4.298,3.062c-0.439-0.384-0.911-0.765-1.418-1.12
		c-0.598-0.418-1.14-0.885-1.945-1.086c-0.047-0.088-0.135-0.135-0.111-0.296c-0.059,0.204-0.067,0.029-0.149,0.146
		c-0.278-0.082,0.199-0.168,0.076-0.448c0.226,0.151,0.243-0.036,0.448,0c0.287,0.055,0.287,0.175,0.483,0.263
		c0.56,0.247,1.351,0.313,2.06,0.261c2.394-0.172,3.888-2.58,3.059-5.306c-0.103-0.354-0.281-0.691-0.448-1.008
		c-0.161-0.307-0.41-0.556-0.483-0.899c-0.088-0.009-0.144-0.058-0.261-0.035c0.029-0.126-0.012-0.304-0.111-0.412
		c-0.023-0.021-0.138-0.016-0.152-0.038c-0.1-0.152-0.117-0.372-0.223-0.521c-0.451-0.633-1.084-1.155-1.608-1.72
		c-1.301-1.41-2.854-2.752-4.896-3.401c-0.41-0.127-0.879-0.12-1.345-0.297c-0.577-0.22-1.418-1.256-1.796-1.755
		c-0.284-0.383-0.486-0.744-0.668-1.124c-0.202-0.42-0.278-0.853-0.451-1.308c-0.056-0.148-0.146-0.251-0.223-0.372
		c0.032-0.667-0.451-1.54-0.747-2.094c-0.864-1.618-1.901-3.161-2.991-4.447c-1.277-1.274-2.675-2.496-2.725-4.744
		c-0.056-2.208,1.131-3.896,2.127-5.308c2.057-2.909,4.693-5.347,5.569-9.305c-2.892-0.639-5.156-1.986-6.838-3.961
		c-0.152-0.177-0.738-0.622-0.562-0.896c0.193-0.294,0.923,0.28,1.084,0.374c2.476,1.395,4.717,3.211,7.922,3.85
		c0.448-1.236-0.311-2.451-0.188-3.85c0.319-0.589,0.823-0.82,1.497-1.121c0.328-0.149,0.779-0.32,0.932-0.636
		c0.431-0.871-0.226-1.727-0.744-2.055c-0.615-0.386-1.629-0.673-2.619-0.785c-0.712-0.082-2.88,0.095-3.026-0.26
		c-0.123-0.305,0.366-0.499,0.375-0.823c0.015-0.489-0.92-1.148-1.345-1.421c-0.615-0.396-1.274-0.647-1.717-1.044
		c1.245-0.729,2.637,0.094,4.107,0.109c0.378,0.483,0.316,1.444,0.226,2.205c2.933,0.353,6.914,0.698,7.21,3.438
		c0.214,1.98-1.564,2.451-2.505,3.477c-0.17,0.188-0.36,0.457-0.445,0.709c-0.267,0.797,0.229,1.489,0.56,2.057
		c-3.838,1.451-4.664,5.975-7.102,8.819c-1.438,1.678-4.248,3.509-3.621,6.799c0.264,1.409,0.981,2.55,1.755,3.551
		c1.541,1.992,4.008,3.112,4.148,6.428c0.141,0.17,0.079,0.542,0.299,0.634c0.129,1.055,1.04,1.746,1.866,2.205
		c0.814,0.452,1.767,0.759,2.654,0.973c0.167,0.29,0.009,0.639-0.114,0.861c2.209,1.409,4.277,2.752,5.719,4.894
		c0.196,0.29,0.34,0.644,0.562,0.934c0.076,0.103,0.22,0.124,0.296,0.224c0.07,0.09,0.094,0.245,0.152,0.337
		c0.132,0.205,0.319,0.401,0.334,0.673c2.007,2.777,3.454,6.111,6.539,7.809c2.265-1.618,6.214-0.773,9.343-0.223
		c1.453,0.255,3.041,0.5,4.485,0.298c1.406-0.193,2.414-0.761,3.252-1.681c1.055,1.488-1.392,1.673-1.345,2.988
		c0.018,0.579,0.791,1.209,1.269,1.608c1.579,1.314,3.501,2.331,5.382,3.214c2.646,1.241,5.429,2.271,8.672,2.765
		c5.769,0.882,10.239-0.645,10.646-5.979c0.103-1.374-0.141-2.687-0.451-3.776c-0.082-0.306-0.331-0.675-0.185-1.006
		c0.428-0.094,0.744,0.303,1.011,0.558c0.8,0.776,1.339,1.956,1.564,3.328c0.346,2.021-0.079,4.065-1.342,4.971
		c4.506,1.857,8.786,3.943,12.519,6.574C332.869,204.18,332.951,204.711,332.67,204.613z M265.483,162.462
		c-0.135-0.452-1.148-0.704-1.644-0.748c-2.2-0.192-4.172,0.738-6.243,0.562c1.518-1.324,3.958-1.723,6.914-1.607
		c-0.173-1.847-0.773-4.74,0.709-5.531c0.305-0.162,0.586,0.169,0.601,0.45c0.009,0.235-0.231,0.352-0.375,0.633
		c-0.237,0.466-0.299,1.214-0.264,2.019c0.026,0.616,0.056,1.415,0.226,1.794c0.111,0.251,0.838,0.945,1.122,1.121
		c0.302,0.188,0.759,0.215,1.16,0.261c0.056,0.141-0.146,0.212-0.229,0.299c-0.662,0.701-1.157,1.972-1.942,2.468
		C265.352,163.61,265.636,162.98,265.483,162.462z M278.151,152.111c-1.271-0.376-2.877-0.411-3.029-1.907
		c1.562,0.267,3.278,1.238,4.523,0.188c1.096-0.926,2.35-3.425,2.203-5.605c-0.056-0.835-0.36-1.596-0.932-2.056
		c-0.261-0.208-0.51-0.246-0.521-0.709c0.296-0.425,0.885,0.173,1.304,0.523c0.363,0.302,0.688,0.624,0.973,0.747
		c0.604-0.331,0.724-1.142,1.72-1.084c0.278,0.932-0.601,1.272-0.935,1.831c0.428,4.975-3.091,6.328-3.773,10.316
		c-0.478,0.038-1.119-0.056-1.644,0c-0.062,0.003-0.129,0.022-0.199,0.04c-0.483,0.262-0.984,0.499-1.377,0.877
		c-0.044,0.04-0.076,0.081-0.105,0.126c-1.151,1.752-1.005,5.162-0.75,7.848c0.094,1.002,0.179,2.027,0.521,2.654
		c0.357,0.643,1.125,1.141,1.831,1.606c2.089,1.382,4.351,2.549,6.99,3.287c0.715-0.701,0.56-2.506,0.223-3.511
		c1.951-1.774,3.24-4.21,6.129-5.045c0.032,0.193-0.176,0.32-0.296,0.486c-0.516,0.697-1.26,2.139-0.639,3.252
		c-1.802,0-3.111,0.498-3.812,1.605c1.922,3.053,7.263,3.203,10.163,5.531c0.255,0.202,1.758,1.472,0.448,1.27
		c-0.299-0.593-1.043-0.999-1.904-1.31c-2.317-0.83-5.616-0.446-7.175,0.823c-0.847,0.691-1.31,1.775-1.532,2.988
		c-0.067-2.016-0.293-3.385-1.307-4.406c-1.562-1.577-4.324-2.037-6.8-2.916c-2.25-0.797-4.726-2.036-4.934-4.745
		c-0.117-1.521,0.41-2.758,0.299-4.299c-0.193-2.687-2.273-4.172-3.662-5.754c-1.532-1.755-2.496-3.884-2.355-7.175
		c0.035-0.008,0.038,0.013,0.041,0.038c0.574,2.118,1.479,3.728,2.725,5.154c1.216,1.397,2.628,2.607,3.738,4.112
		c0.176-0.79,0.621-1.585,1.269-1.982c0.135-0.08,0.319-0.127,0.495-0.185c0.483-0.44,1.099-0.704,1.667-1.037
		c0-0.001,0.003-0.006,0.006-0.012C278.046,153.324,278.181,152.743,278.151,152.111z M285.25,153.605
		c4.292-0.159,7.922,0.644,9.155,3.662c-0.164,0.012-0.255,0.096-0.372,0.149c-0.193-0.179-0.255-0.41-0.413-0.596
		c-1.688-2-8.013-2.42-8.37,0.782c-0.129,1.161,0.319,1.759,0.636,2.617c-1.79-0.305-1.96-2.228-2.092-4.187
		c0.809-0.25,1.559-0.56,1.942-1.233C285.839,154.164,285.367,153.9,285.25,153.605z M278.937,178.305
		c0.375-0.234,0.864-0.646,1.342-0.336c0.252,0.163,0.346,0.535,0.413,0.896c0.062,0.357-0.009,0.834,0.111,1.197
		c0.19,0.577,1.491,1.166,2.095,1.383c2.575,0.929,6.413,0.61,9.305,0.186c-3.144,2.473-10.031,1.525-12.744-0.634
		C279.974,179.94,278.954,179.308,278.937,178.305z M278.263,173.223c-2.273,1.263-6.847,1.204-9.492,0.412
		c3.299-0.413,6.817-0.605,9.867-1.271c0.018-0.054,0.059-0.089,0.111-0.112c0.261-0.025,0.352,0.089,0.372,0.227
		C279.165,172.759,278.556,173.062,278.263,173.223z M353.189,199.756c0.387,0.297,0.806,0.707,0.445,1.311
		c-0.826-0.446-2.854-0.141-2.988,0.744c-0.161,1.007,1.028,1.301,0.706,2.542c-0.155,0.053-0.346-0.184-0.521-0.337
		c-0.513-0.454-0.873-1.068-1.271-1.682c-1.526-2.363-4.16-3.747-6.615-5.268c-3.237-2.009-6.252-4.426-9.229-6.617
		c-4.494-3.309-9.36-6.48-16.928-6.836c-2.654-0.125-5.104,0.019-5.979,1.904c-0.176,2.355,0.621,4.032,1.31,5.607
		c0.12,0.27,0.413,0.52,0.264,0.859c-0.117,0.135-0.431,0.049-0.451,0.038c-0.132-0.076-0.167-0.396-0.261-0.562
		c-0.378-0.666-0.984-1.339-1.494-2.019c-2.971-3.946-6.088-7.939-9.419-11.549c-0.554-0.596-1.143-1.152-1.605-1.791
		c0.419-0.392,1.362-0.254,1.717-0.709c-0.076-3.269,0.188-6.57,0.188-9.717c0-9.713-4.646-15.517-10.424-19.504
		c-0.088-2.162-1.131-3.676-2.429-4.821c-1.292-1.14-2.877-2.004-4.708-2.506c-4.512-1.23-8.42,0.646-8.821,4.82
		c-2.021-0.211-3.029,0.79-4.146,1.57c-1.157,0.806-2.458,1.236-4.597,1.046c0.691-0.3,1.33-0.467,1.942-0.747
		c1.775-0.814,3.021-2.356,5.531-2.467c0.305-3.457,3.445-4.07,5.121-6.165c-0.428-0.169-0.894-0.468-1.386-0.45
		c0.015-0.074,0.006-0.145-0.012-0.212c-0.782-0.214-1.497-0.696-2.127-1.181c-0.038-0.028-0.067-0.062-0.091-0.097
		c-0.46-0.266-0.967-0.489-1.655-0.489c-2.136,0-3.615,1.979-5.458,2.391c1.084-3.079,4.825-3.498,6.618-5.867
		c-2.669-1.434-6.398,0.081-8.748,0.785c-0.214-0.634,0.182-1.11,0.674-1.384c2.03-1.11,6.741-0.866,9.305-0.409
		c1.195-0.886-0.504-2.421-0.674-3.513c1.02-0.023,1.339,0.656,1.869,1.121c1.154-0.901,2.235-2.196,4.523-1.717
		c-1.403,1.277-3.976,1.38-4.151,3.883c4.389-0.918,7.881-3.255,13.641-2.802c-2.224,0.938-5.666,0.66-5.604,3.886
		c6.521,2.259,15.533,2.032,15.993,10.353c1.978,0.165,3.422,0.861,5.566,0.859c1.295-1.629,0.313-3.994-0.56-5.232
		c-0.973-1.386-2.229-2.57-3.176-3.848c0.539-0.544,0.932-1.717,0.448-2.616c-1.066-1.995-4.679-2.785-7.175-3.214
		c3.562-0.902,6.797,0.52,8.109,2.69c1.163-0.185,2.514-0.15,3.809-0.111c-1.017,0.708-2.496,1.008-2.613,2.542
		c-0.056,0.766,0.343,1.685,0.712,2.351c0.375,0.686,0.797,1.315,1.157,1.907c0.946,1.54,2.083,3.529,1.31,5.643
		c3.448,2.331,7.002,4.561,6.876,10.465c2.991,0.53,5.979,3.397,9.188,1.643c1.922-1.051,2.118-4.008,3.627-5.417
		c0.662-0.615,1.614-0.87,1.72-2.021c0.167-1.787-1.166-3.094-1.646-4.482c-0.835-0.287-1.43-0.812-2.317-1.049
		c-0.023-0.173,0.208-0.226,0.34-0.334c0.662-0.545,1.157-1.439,2.429-1.419c-0.413,3.413,2.265,4.352,2.689,7.173
		c1.248-0.247,2.089-0.9,3.475-1.006c1.28-4.257-0.809-8.313-3.85-9.53c0.032-0.246,0.255-0.397,0.375-0.636
		c0.325-0.636,0.478-1.488,1.345-1.569c0.536,0.615-0.352,1.16-0.182,1.755c0.062,0.229,0.568,0.377,0.891,0.412
		c0.899,0.092,2.121-0.149,3.176-0.111c1.099,0.036,1.857,0.35,2.209,1.006c-1.289,0.463-3.419-0.149-4.597,0.413
		c1.354,1.851,2.411,4.306,2.47,7.584c1.564-0.535,3.721-1.746,5.637-0.782c1.075-0.419,2.317-2.15,1.688-3.662
		c-0.208-0.48-0.624-0.653-0.938-1.084c0.803,0.183,1.471,0.302,1.831,0.897c0.668,1.112-0.041,2.838-0.486,3.773
		c1.266,0.979,2.856,1.824,3.773,3.026c-2.036-0.443-3.457-1.691-5.868-1.794c-2.291-0.097-4.485,0.493-6.463,1.158
		c-2.889,0.97-5.35,2.168-6.914,4.522c-0.48,0.724-1.356,2.087-0.896,3.176c0.173,0.411,0.63,0.747,1.008,1.082
		c0.132,0.119,0.407,0.374,0.592,0.627c0.416,0.21,0.727,0.562,0.993,0.955c0.029,0.043,0.044,0.09,0.05,0.132
		c0.223,0.284,0.398,0.65,0.721,0.679c0.302,0.027,0.814-0.479,1.008-0.671c0.278-0.27,0.621-0.677,0.935-0.711
		c0.246-0.026,0.812,0.271,1.236,0.412c5.716,1.894,11.979,3.306,15.319,7.472c0.237,0.296,0.416,0.638,0.674,0.935
		c0.255,0.298,0.521,0.542,0.782,0.896c0.091,0.119,0.205,0.204,0.261,0.301c0.067,0.114,0.111,0.341,0.152,0.411
		c0.407,0.726,1.371,1.388,2.317,1.496c2.774,0.309,3.51-2.618,2.763-5.01c0.17-0.022,0.322,0.103,0.448,0
		c0.097-0.132,0.258-0.172,0.41-0.261c0.141-0.084,0.287-0.233,0.489-0.263c1.043-1.105,2.37-1.756,2.241-3.961
		c-0.155-2.616-2.604-3.851-4.002-5.382c-0.536-0.593-0.914-1.27-1.23-2.016c2.578,1.294,3.428,4.318,7.025,4.597
		c0.05,0.223-0.296,0.444-0.448,0.708c-0.835,1.474-0.498,4.179,0.56,5.383c0.229,0.255,0.565,0.351,0.712,0.635
		c-0.586,0.159-1.348,0.249-2.168,0.264c-0.806,0.01-1.72-0.088-2.279,0.146c-0.264,0.109-0.378,0.378-0.633,0.411
		c0.272,1.459-0.636,2.838-0.117,3.998c0.337,0.742,1.351,0.854,2.095,1.27c0.445,0.252,0.762,0.516,1.087,0.86
		c-2.074-0.656-5.101-0.351-6.319,0.935c-1.093,1.149-0.261,2.906,0.524,3.85c-0.814-0.26-1.559-0.782-2.654-0.635
		c-0.606,0.472,0.185,1.84-0.337,2.466c-0.012,0.147-0.211-0.093-0.223-0.188c-0.574-0.577-0.858-1.326-0.785-2.205
		c0.114-1.337,1.122-2.464,1.122-3.812c0.003-1.269-0.753-2.014-1.084-3.103c-0.199-0.326-0.51-0.551-0.747-0.859
		c-0.123-0.154-0.179-0.354-0.302-0.521c-0.381-0.521-0.979-0.976-1.529-1.456c-3.583-3.146-8.525-5.926-15.51-4.972
		c-0.973,7.967,2.602,12.987,4.896,18.349c0.606,1.407,1.116,2.775,1.529,4.372c0.132,0.507,0.211,1.052,0.378,1.567
		c0.138,0.41,0.437,0.963,0.296,1.684c-0.771-0.116-0.63-0.588-0.744-1.421c-0.064-0.465-0.346-1.099-0.562-1.682
		c-1.395-3.738-3.451-7.13-5.118-10.5c-1.562-3.154-2.165-6.661-2.953-10.427c-0.252-1.203-0.451-2.467-0.823-3.624
		c-0.029-0.096-0.103-0.192-0.149-0.298c-0.179-0.147-0.366-0.275-0.565-0.396c-0.114-0.068-0.158-0.17-0.158-0.27
		c-0.032-0.01-0.067-0.023-0.094-0.029c-0.105-0.029-0.164-0.085-0.205-0.155c-0.791-0.267-1.304-0.651-2.227-0.722
		c-2.086-0.148-3.844,0.624-5.903,0.411c-0.357-0.033-0.794-0.206-1.087-0.373c-0.911-0.518-1.658-1.364-2.766-1.795
		c-1.146-0.442-2.373-0.501-3.923-0.634c1.175-7.966-4.67-11.256-12.369-10.277c-1.063,1.087,0.63,1.793,1.57,2.169
		c2.361,0.943,3.688,2.801,4.708,5.044c1.392,3.051,2.153,6.399,4.113,8.856c3.073,0.716,5.499,2.764,5.754,6.278
		c0.038,0.521,0.032,1.137-0.041,1.68c-0.059,0.466-0.334,1.011-0.296,1.421c0.029,0.331,0.533,0.882,0.823,1.235
		c0.929,1.122,2.136,1.945,3.322,2.726c1.652,1.083,3.451,2.117,4.339,3.775c0.422,0.792,0.56,1.55,0.967,2.13
		c1.233,1.747,3.653,2.436,4.673,4.445c-0.173,0.899-0.97,1.175-1.682,1.534c-0.223-0.223-0.334-0.359-0.258-0.75
		c0.05-0.267,0.322-0.564,0.296-0.784c-0.023-0.196-0.598-0.633-0.861-0.858c-4.465-3.864-8.405-8.716-13.228-12.07
		c-0.879-2.342,0.911-6.173-0.896-7.734c-0.475-0.407-1.269-0.704-1.98-0.971c-0.724-0.275-1.562-0.53-1.939-0.973
		c-0.217-0.249-0.372-0.749-0.562-1.159c-2.716-5.83-3.712-13.419-11.546-14.087c-0.158-0.667,0.319-1.074,0.598-1.456
		c0.832-1.166,1.57-3.032,0.785-4.746c-0.853-1.854-2.692-2.911-4.559-3.812c-3.768-1.819-8.373-2.946-13.641-3.141
		c0.144-1.013,1.468-0.846,2.168-1.31c-0.296-0.799-0.94-1.189-2.095-1.119c-1.509,0.091-2.906,0.845-4.148,1.606
		c-1.26,0.776-2.455,1.651-3.1,2.615c0.129,0.385,0.469,0.678,0.817,0.917c0.064-0.009,0.141,0.01,0.22,0.067
		c0.645,0.495,1.374,0.999,2.186,1.164c0.12,0.028,0.193,0.099,0.226,0.185c0.258,0.082,0.507,0.23,0.662,0.359
		c3.223,1.072,6.533,2.055,9.27,3.622c2.438-1.058,4.146-2.849,7.544-2.951c-1.213,1.744-4.506,1.735-5.49,3.848
		c1.922,4.057,4.4,7.562,7.998,9.942c0.671-0.571,0.287-2.205,1.825-1.906c-1.113,1.825-0.337,3.696,0.413,5.344
		c1.192,2.607,2.089,5.662,2.543,8.968c0.483,3.535,0.454,7.458-0.188,10.649c-0.202,1.019-0.551,1.966-0.785,3.026
		c-0.003,0.023,0,0.053,0,0.075c0.012,0.669,0.618,1.609,1.011,2.168c1.307,1.855,3.404,3.033,5.83,3.662
		c3.188,0.826,6.899,0.496,9.337-0.784c0.334-0.176,0.65-0.439,1.014-0.486c0.571,0.386-0.032,0.87-0.299,1.159
		c6.363,1.825,12.571,3.763,17.112,7.547c1.181,0.988,3.308,2.979,5.754,2.095c1.614-0.585,1.723-2.853,1.383-5.047
		c-0.293-1.899-0.943-3.681-1.081-5.605c-0.105-1.411,0.498-2.47,0.41-3.96c-0.158-2.652-1.195-4.62-1.494-7.251
		c-0.217-1.891,0.308-3.167,1.312-3.997c0.161-0.143,0.398-0.396,0.668-0.263c0.149,0.289-0.108,0.579-0.188,0.823
		c-0.741,2.247,0.281,4.795,0.861,6.615c0.378,1.187,0.771,2.369,0.932,3.662c0.322,2.589-0.343,6.157-0.076,8.78
		c0.141,1.388,0.574,2.355,1.348,3.251c1.389,1.612,3.598,2.567,6.539,2.506c0.111,0.148,0.401,0.122,0.633,0.148
		c-0.141,0.13-0.53,0.018-0.633,0.188c4.225-0.161,8.423,0.277,11.736,1.268c-2.877,0.891-6.103,0.104-8.93-0.375
		c-1.447-0.24-2.991-0.356-4.564-0.448c-1.538-0.087-3.103-0.237-4.482,0.265C345.944,197.205,350.415,197.647,353.189,199.756z
		 M326.02,161.677c-0.785,1.216-0.056,3.92-1.008,5.158c-0.352,0.454-0.885,0.687-1.72,0.747c0.677-1.884,0.475-4.969,1.79-6.129
		c0.281-0.246,0.656-0.325,0.938-0.523c0.149-0.104,0.407-0.062,0.448,0.151C326.518,161.351,326.14,161.495,326.02,161.677z
		 M308.266,167.544c-0.146-0.208-1.069-0.441-1.116-0.785c-0.023-0.137,0.176-0.434,0.372-0.41c0.188,0.021,0.674,0.273,0.82,0.373
		c0.126,0.085,0.214,0.271,0.375,0.41c0.205,0.179,0.472,0.324,0.598,0.488c1.289,1.645-0.108,5.506,1.646,6.463
		c-0.185,0.212-0.398,0.313-0.524,0.524c-0.858,1.431,0.53,3.346,1.345,3.961c-3.387-0.126-4.497-2.528-6.018-4.522
		c1.362,0.07,1.811,1.058,2.953,1.347C309.335,172.786,308.409,170.103,308.266,167.544z M359.5,203.94
		c-0.234,0.198-0.48,0.278-0.744,0.45c-0.305,0.196-0.501,0.562-0.861,0.521c-0.135-0.017-0.381-0.166-0.334-0.409
		c0.047-0.255,0.639-0.387,0.82-0.487c0.706-0.998,1.459-1.954,1.904-3.213c-1.758-0.883-3.691-1.591-5.382-2.541
		c0.015-0.188-0.126-0.226-0.073-0.45c0.126-0.197,0.445-0.155,0.601,0c3.735,0.65,6.404,2.363,9.896,3.255
		c-0.296,0.357-0.659,0.63-1.119,0.67c-0.683,0.057-1.304-0.482-2.054-0.261C361.009,201.812,360.353,203.226,359.5,203.94z
		 M383.342,193.364c-1.351,1.133-3.185,2.168-2.766,4.822c-1.066,0.137-2.051,0.424-2.877,0.935c-0.176,0.108-0.7,0.412-0.709,0.524
		c-0.006,0.058,0.583,0.784,0.636,0.972c0.155,0.602-0.044,0.965-0.114,1.605c-0.328-0.366-0.51-0.837-0.82-1.195
		c-0.319-0.366-0.7-0.649-1.011-1.008c-4.031-0.438-6.662,1.149-7.884,3.773c-1.119,0.015-2.019,0.006-2.953,0.262
		c-0.275,0.075-0.501,0.267-0.782,0.336c-0.583,0.142-1.216,0.079-1.945,0.074c0.633-0.645,1.793-0.722,2.842-0.935
		c1.702-0.346,2.563-1.594,3.735-2.69c0.832-0.778,1.494-1.379,2.505-1.796c1.061-0.434,2.402-0.436,3.812-0.372
		c1.456,0.067,2.555-0.152,3.36-0.86c0.727-0.637,1.318-1.5,1.907-2.353c1.201-1.737,2.435-3.357,3.138-5.529
		C384.543,190.915,383.028,192.077,383.342,193.364z M384.276,189.965c-1.148-0.023-1.292-1.728-0.601-2.354
		C383.931,188.342,384.317,188.94,384.276,189.965z"/>
</g>
<g>
	<path fill="#FFFFFF" d="M194.459,217.82c0.198-0.271,0.414-0.474,0.648-0.609c0.234-0.135,0.487-0.203,0.758-0.203
		c0.469,0,0.852,0.162,1.148,0.484c0.297,0.323,0.445,0.87,0.445,1.641v2.719c0,0.771-0.148,1.32-0.445,1.648
		s-0.68,0.492-1.148,0.492c-0.427,0-0.771-0.12-1.031-0.359c-0.261-0.239-0.453-0.688-0.578-1.344
		c-0.073-0.438-0.219-0.776-0.438-1.016c-0.427-0.469-1.023-0.844-1.789-1.125s-1.534-0.422-2.305-0.422
		c-0.958,0-1.839,0.208-2.641,0.625c-0.802,0.417-1.511,1.094-2.125,2.031c-0.615,0.938-0.922,2.052-0.922,3.344v2.078
		c0,1.542,0.56,2.828,1.68,3.859c1.12,1.031,2.674,1.547,4.664,1.547c1.188,0,2.192-0.161,3.016-0.484
		c0.479-0.188,0.989-0.557,1.531-1.109c0.333-0.333,0.594-0.549,0.781-0.648c0.188-0.099,0.401-0.148,0.641-0.148
		c0.427,0,0.802,0.162,1.125,0.484c0.323,0.323,0.484,0.703,0.484,1.141s-0.219,0.906-0.656,1.406
		c-0.636,0.729-1.453,1.302-2.453,1.719c-1.344,0.562-2.828,0.844-4.453,0.844c-1.896,0-3.604-0.391-5.125-1.172
		c-1.229-0.625-2.276-1.612-3.141-2.961c-0.865-1.349-1.297-2.82-1.297-4.414v-2.172c0-1.667,0.388-3.221,1.164-4.664
		c0.776-1.442,1.852-2.555,3.227-3.336s2.833-1.172,4.375-1.172c0.927,0,1.794,0.107,2.602,0.32
		C193.008,217.057,193.761,217.382,194.459,217.82z"/>
	<path fill="#FFFFFF" d="M222.111,226.476c0,2.844-0.904,5.211-2.711,7.102c-1.808,1.891-3.898,2.836-6.273,2.836
		c-2.136,0-4.062-0.786-5.781-2.359c-2.125-1.948-3.188-4.474-3.188-7.578c0-3.104,1.062-5.635,3.188-7.594
		c1.719-1.573,3.646-2.359,5.781-2.359c2.375,0,4.466,0.945,6.273,2.836C221.207,221.25,222.111,223.622,222.111,226.476z
		 M218.908,226.476c0-1.948-0.589-3.56-1.766-4.836c-1.177-1.276-2.516-1.914-4.016-1.914c-1.49,0-2.823,0.641-4,1.922
		c-1.177,1.281-1.766,2.891-1.766,4.828s0.588,3.544,1.766,4.82c1.177,1.276,2.51,1.914,4,1.914c1.5,0,2.838-0.635,4.016-1.906
		C218.319,230.034,218.908,228.424,218.908,226.476z"/>
	<path fill="#FFFFFF" d="M231.794,223.195v9.547h1.156c0.771,0,1.32,0.148,1.648,0.445s0.492,0.685,0.492,1.164
		c0,0.469-0.164,0.852-0.492,1.148s-0.878,0.445-1.648,0.445h-4.203c-0.771,0-1.32-0.148-1.648-0.445s-0.492-0.685-0.492-1.164
		c0-0.469,0.162-0.852,0.484-1.148s0.823-0.445,1.5-0.445V220.21c-0.562-0.052-0.987-0.224-1.273-0.516
		c-0.286-0.292-0.43-0.656-0.43-1.094c0-0.479,0.164-0.867,0.492-1.164s0.877-0.445,1.648-0.445l3.516,0.016l4.359,9.641
		l4.281-9.656l3.547,0.016c0.771,0,1.32,0.146,1.648,0.438c0.328,0.292,0.492,0.677,0.492,1.156c0,0.438-0.146,0.802-0.438,1.094
		c-0.292,0.292-0.714,0.464-1.266,0.516v12.531c0.677,0,1.177,0.151,1.5,0.453c0.323,0.302,0.484,0.688,0.484,1.156
		s-0.164,0.852-0.492,1.148s-0.878,0.445-1.648,0.445h-4.219c-0.761,0-1.305-0.148-1.633-0.445s-0.492-0.685-0.492-1.164
		c0-0.469,0.164-0.852,0.492-1.148s0.872-0.445,1.633-0.445h1.172v-9.547l-3.672,8.25h-2.781L231.794,223.195z"/>
	<path fill="#FFFFFF" d="M262.086,220.21v12.531h3.234c0.771,0,1.32,0.148,1.648,0.445s0.492,0.685,0.492,1.164
		c0,0.469-0.164,0.852-0.492,1.148s-0.878,0.445-1.648,0.445h-9.672c-0.771,0-1.32-0.148-1.648-0.445s-0.492-0.685-0.492-1.164
		c0-0.469,0.164-0.852,0.492-1.148s0.877-0.445,1.648-0.445h3.234V220.21h-3.234c-0.771,0-1.32-0.148-1.648-0.445
		s-0.492-0.685-0.492-1.164c0-0.479,0.164-0.867,0.492-1.164s0.877-0.445,1.648-0.445l9.672,0.016c0.771,0,1.32,0.146,1.648,0.438
		c0.328,0.292,0.492,0.677,0.492,1.156c0,0.479-0.164,0.867-0.492,1.164s-0.878,0.445-1.648,0.445H262.086z"/>
	<path fill="#FFFFFF" d="M280.16,223.054v9.688h1.156c0.771,0,1.32,0.148,1.648,0.445s0.492,0.685,0.492,1.164
		c0,0.469-0.164,0.852-0.492,1.148s-0.878,0.445-1.648,0.445h-4.203c-0.771,0-1.32-0.148-1.648-0.445s-0.492-0.685-0.492-1.164
		c0-0.458,0.161-0.838,0.484-1.141c0.323-0.302,0.823-0.453,1.5-0.453V220.21h-0.5c-0.771,0-1.32-0.148-1.648-0.445
		s-0.492-0.685-0.492-1.164c0-0.479,0.164-0.867,0.492-1.164s0.877-0.445,1.648-0.445l3.703,0.016l8.188,12.844v-9.641h-1.156
		c-0.771,0-1.32-0.148-1.648-0.445s-0.492-0.685-0.492-1.164c0-0.479,0.164-0.867,0.492-1.164s0.877-0.445,1.648-0.445l4.203,0.016
		c0.771,0,1.32,0.146,1.648,0.438c0.328,0.292,0.492,0.677,0.492,1.156c0,0.469-0.162,0.854-0.484,1.156
		c-0.323,0.302-0.818,0.453-1.484,0.453v15.734h-3.172L280.16,223.054z"/>
	<path fill="#FFFFFF" d="M315.922,230.085v4.297c-1.449,0.781-2.68,1.315-3.695,1.602s-2.113,0.43-3.289,0.43
		c-1.637,0-3.152-0.245-4.547-0.734c-1.094-0.375-1.957-0.849-2.586-1.422c-0.631-0.573-1.211-1.419-1.742-2.539
		c-0.531-1.12-0.797-2.372-0.797-3.758v-2.312c0-2.135,0.65-4.042,1.953-5.719c1.75-2.271,4.129-3.406,7.141-3.406
		c0.875,0,1.705,0.089,2.492,0.266c0.785,0.177,1.533,0.443,2.242,0.797c0.426-0.385,0.844-0.578,1.25-0.578
		c0.469,0,0.848,0.162,1.141,0.484c0.291,0.323,0.438,0.87,0.438,1.641v2.078c0,0.771-0.148,1.32-0.445,1.648
		s-0.68,0.492-1.148,0.492c-0.375,0-0.699-0.114-0.969-0.344c-0.209-0.156-0.383-0.502-0.523-1.039
		c-0.141-0.536-0.301-0.898-0.477-1.086c-0.281-0.302-0.779-0.57-1.492-0.805c-0.715-0.234-1.514-0.352-2.398-0.352
		c-1.271,0-2.375,0.261-3.312,0.781c-0.668,0.386-1.281,1.058-1.844,2.016c-0.562,0.958-0.844,2-0.844,3.125v2.312
		c0,1.719,0.496,3.023,1.492,3.914c0.994,0.891,2.574,1.336,4.742,1.336c1.469,0,2.807-0.276,4.016-0.828v-2.297h-3.266
		c-0.771,0-1.32-0.148-1.648-0.445s-0.492-0.685-0.492-1.164c0-0.479,0.164-0.867,0.492-1.164s0.877-0.445,1.648-0.445l5.688,0.016
		c0.77,0,1.32,0.146,1.648,0.438c0.328,0.292,0.492,0.677,0.492,1.156c0,0.375-0.113,0.703-0.336,0.984
		C316.721,229.742,316.379,229.95,315.922,230.085z"/>
	<path fill="#FFFFFF" d="M347.745,232.742h7.016c0.386-0.312,0.75-0.469,1.094-0.469c0.489,0,0.878,0.162,1.164,0.484
		c0.286,0.323,0.43,0.875,0.43,1.656v1.531h-14.594v-3.391c5.771-4.76,9.255-7.823,10.453-9.188
		c0.604-0.698,0.906-1.359,0.906-1.984c0-0.781-0.341-1.471-1.023-2.07c-0.683-0.599-1.591-0.898-2.727-0.898
		c-1.146,0-2.099,0.333-2.859,1c-0.396,0.354-0.714,0.88-0.953,1.578c-0.146,0.438-0.347,0.75-0.602,0.938s-0.57,0.281-0.945,0.281
		c-0.438,0-0.815-0.156-1.133-0.469s-0.477-0.677-0.477-1.094c0-0.625,0.289-1.406,0.867-2.344s1.422-1.688,2.531-2.25
		s2.315-0.844,3.617-0.844c2.021,0,3.677,0.612,4.969,1.836c1.292,1.224,1.938,2.706,1.938,4.445c0,0.886-0.185,1.706-0.555,2.461
		c-0.37,0.755-1.258,1.8-2.664,3.133C353.094,228.138,350.943,230.023,347.745,232.742z"/>
	<path fill="#FFFFFF" d="M381.412,224.054v3.516c0,2.083-0.602,4.078-1.805,5.984s-2.924,2.859-5.164,2.859
		c-1.291,0-2.383-0.284-3.273-0.852s-1.734-1.614-2.531-3.141c-0.797-1.526-1.195-3.143-1.195-4.852v-3.516
		c0-2.073,0.6-4.065,1.797-5.977c1.198-1.911,2.917-2.867,5.156-2.867c1.281,0,2.367,0.281,3.258,0.844s1.74,1.607,2.547,3.133
		C381.009,220.713,381.412,222.335,381.412,224.054z M378.193,224.054c0-1.739-0.484-3.26-1.453-4.562
		c-0.552-0.719-1.328-1.078-2.328-1.078c-0.969,0-1.76,0.396-2.375,1.188c-0.927,1.198-1.391,2.683-1.391,4.453v3.516
		c0,1.75,0.49,3.271,1.469,4.562c0.542,0.719,1.318,1.078,2.328,1.078c0.959,0,1.745-0.396,2.359-1.188
		c0.928-1.198,1.391-2.682,1.391-4.453V224.054z"/>
	<path fill="#FFFFFF" d="M399.736,215.21v17.531h3.234c0.771,0,1.32,0.148,1.648,0.445s0.492,0.685,0.492,1.164
		c0,0.469-0.164,0.852-0.492,1.148s-0.878,0.445-1.648,0.445h-9.672c-0.771,0-1.32-0.148-1.648-0.445s-0.492-0.685-0.492-1.164
		c0-0.469,0.164-0.852,0.492-1.148s0.877-0.445,1.648-0.445h3.234v-13.359l-2.859,0.75c-0.459,0.125-0.803,0.188-1.031,0.188
		c-0.406,0-0.758-0.161-1.055-0.484c-0.297-0.323-0.445-0.719-0.445-1.188c0-0.427,0.109-0.763,0.328-1.008
		c0.219-0.245,0.677-0.461,1.375-0.648L399.736,215.21z"/>
	<path fill="#FFFFFF" d="M426.357,225.242c0.947,0.646,1.656,1.394,2.125,2.242c0.469,0.849,0.703,1.8,0.703,2.852
		c0,1.136-0.311,2.185-0.93,3.148c-0.621,0.964-1.52,1.693-2.695,2.188c-1.178,0.495-2.719,0.742-4.625,0.742
		c-2.48,0-4.344-0.386-5.594-1.156c-0.699-0.438-1.047-0.958-1.047-1.562c0-0.458,0.152-0.846,0.461-1.164
		c0.307-0.317,0.68-0.477,1.117-0.477c0.301,0,0.613,0.104,0.938,0.312c0.457,0.312,0.891,0.521,1.297,0.625
		c0.625,0.146,1.484,0.219,2.578,0.219c1.863,0,3.213-0.242,4.047-0.727c0.832-0.484,1.25-1.169,1.25-2.055
		c0-0.656-0.242-1.289-0.727-1.898s-1.133-1.081-1.945-1.414c-0.469-0.188-1.262-0.317-2.375-0.391
		c-0.531-0.031-0.941-0.195-1.227-0.492c-0.287-0.297-0.43-0.664-0.43-1.102c0-0.458,0.156-0.844,0.469-1.156
		s0.707-0.469,1.188-0.469c1.062,0,1.629-0.005,1.703-0.016c0.416-0.042,0.832-0.177,1.25-0.406
		c0.416-0.229,0.752-0.544,1.008-0.945c0.254-0.401,0.383-0.815,0.383-1.242c0-0.677-0.301-1.263-0.898-1.758
		c-0.6-0.495-1.498-0.742-2.695-0.742c-1.543,0-2.719,0.448-3.531,1.344c-0.24,0.261-0.434,0.427-0.578,0.5
		c-0.219,0.115-0.465,0.172-0.734,0.172c-0.438,0-0.812-0.156-1.125-0.469s-0.469-0.698-0.469-1.156
		c0-0.719,0.479-1.417,1.438-2.094c1.395-0.989,3.141-1.484,5.234-1.484c1.979,0,3.566,0.562,4.766,1.688
		c1.197,1.125,1.797,2.479,1.797,4.062c0,0.823-0.178,1.591-0.531,2.305C427.596,223.979,427.064,224.638,426.357,225.242z"/>
</g>
</svg>
