<?xml version="1.0" encoding="utf-8"?>
<!-- Generator: Adobe Illustrator 15.0.0, SVG Export Plug-In . SVG Version: 6.00 Build 0)  -->
<!DOCTYPE svg PUBLIC "-//W3C//DTD SVG 1.1//EN" "http://www.w3.org/Graphics/SVG/1.1/DTD/svg11.dtd">
<svg version="1.1" id="Layer_1" xmlns="http://www.w3.org/2000/svg" xmlns:xlink="http://www.w3.org/1999/xlink" x="0px" y="0px"
	 width="36.5px" height="36.5px" viewBox="0 0 36.5 36.5" enable-background="new 0 0 36.5 36.5" xml:space="preserve">
<rect width="36.5" height="36.5"/>
<g>
	<path fill="#FFFFFF" d="M6.947,15.322c-0.498-0.357-0.826-0.887-1.148-1.42c1.102-0.828,1.986-1.764,3.107-2.771
		c0.973-0.869,3.086-2.883,5.004-1.893c1.672,0.861,1.752,3.643,2.164,5.949c0.156,0.877,0.346,2.137,0.676,3.381
		c0.236,0.891,0.736,2.562,1.42,2.637c0.832,0.092,1.625-1.381,2.164-2.232c0.619-0.977,1.299-2.039,1.486-2.906
		c0.475-2.199-1.068-2.895-3.043-2.027c0.75-2.787,2.309-4.975,5.207-5.273c3.307-0.342,4.99,1.645,4.328,5.273
		c-0.324,1.768-1.111,3.195-1.961,4.596c-1.484,2.447-3.617,5.224-5.746,7.234c-1.135,1.069-3.208,2.774-5.208,2.299
		c-2.271-0.539-2.984-4.219-3.65-6.625c-0.348-1.254-0.646-2.617-1.082-4.057c-0.33-1.094-0.943-3.09-1.895-3.178
		C7.949,14.232,7.576,15.037,6.947,15.322z"/>
</g>
<rect width="36.5" height="36.5"/>
<g>
	<path fill="#FFFFFF" d="M12.396,5.043c0.341,1.282,0.709,2.538,1.03,3.84c0.393-1.229,0.682-2.565,1.03-3.84c0.5,0,1,0,1.499,0
		c-0.425,1.449-0.886,2.905-1.343,4.402c-0.146,0.477-0.371,0.997-0.437,1.468c-0.178,1.285,0.13,2.584,0,3.997
		c-0.49,0-0.979,0-1.468,0c-0.096-1.39,0.129-2.681,0-3.935c-0.101-0.974-0.54-2.082-0.844-2.997
		c-0.325-0.984-0.7-1.912-0.998-2.841c0.004-0.037-0.008-0.056-0.031-0.063c-0.006-0.026,0.012-0.029,0.031-0.031
		C11.376,5.043,11.885,5.043,12.396,5.043z"/>
	<path fill="#FFFFFF" d="M17.891,7.448c0.781-0.024,1.464,0.33,1.779,0.967c0.307,0.62,0.25,1.906,0.25,2.872
		c0,0.999,0.037,2.207-0.312,2.811c-0.416,0.721-1.449,1.133-2.402,0.78c-1.198-0.442-1.249-1.75-1.249-3.528
		c0-1.76-0.058-3.145,1.03-3.715C17.204,7.52,17.569,7.457,17.891,7.448z M17.298,9.728c-0.037,1.055-0.226,3.846,0.437,4.026
		c0.146,0.041,0.44-0.005,0.501-0.03c0.465-0.203,0.343-1.521,0.343-2.467c0-0.982,0.263-2.834-0.781-2.592
		C17.381,8.762,17.315,9.209,17.298,9.728z"/>
	<path fill="#FFFFFF" d="M21.075,7.54c0.417,0,0.833,0,1.249,0c0.057,1.331,0.031,3.208,0.031,4.841
		c0,0.502-0.098,1.275,0.188,1.405c0.438,0.199,0.754-0.372,0.969-0.594c0.021-1.873-0.041-3.83,0.03-5.652c0.438,0,0.874,0,1.312,0
		c0,2.457,0,4.914,0,7.37c-0.447,0-0.895,0-1.342,0c0-0.24,0-0.479,0-0.72c-0.394,0.326-1.298,1.235-2.093,0.688
		c-0.614-0.425-0.405-2.293-0.405-3.434c0-1.403,0-2.687,0-3.81C21.012,7.581,21.036,7.554,21.075,7.54z"/>
	<path fill="#FFFFFF" stroke="#000000" stroke-width="0.25" stroke-miterlimit="10" d="M14.362,16.252
		c2.117-0.1,4.393-0.031,6.619-0.031c1.029,0,2.115,0.023,3.217,0.094c0.978,0.062,2.216,0.062,2.936,0.343
		c2.164,0.848,2.061,4.046,2.061,7.182c0,3.245,0.09,6.354-2.123,7.15c-0.538,0.193-1.32,0.229-2.061,0.281
		c-3.757,0.266-7.519,0.201-11.428,0.094c-0.714-0.021-1.471-0.065-2.217-0.125C9.601,31.1,8.51,30.908,7.899,29.585
		c-0.642-1.392-0.593-3.603-0.593-5.994c0-1.003,0.022-2.03,0.093-2.903c0.163-1.999,0.504-3.47,1.998-4.028
		c0.647-0.241,1.525-0.256,2.343-0.312C12.582,16.288,13.422,16.297,14.362,16.252z M8.931,18.875c0,0.416,0,0.832,0,1.248
		c0.458,0.072,1.05,0.012,1.56,0.031c0,2.8,0,5.601,0,8.4c0.49,0,0.979,0,1.468,0c0.021-2.791-0.041-5.662,0.031-8.4
		c0.521,0,1.041,0,1.562,0c0-0.457,0-0.915,0-1.375c-1.53,0-3.061,0-4.59,0C8.925,18.786,8.928,18.83,8.931,18.875z M18.703,18.779
		c-0.08,3.215-0.011,6.547,0,9.775c0.438,0,0.874,0,1.312,0c0-0.229,0-0.459,0-0.688c0.393,0.508,1.336,1.095,2.027,0.593
		c0.719-0.521,0.531-2.084,0.531-3.559c0-1.121,0.113-2.334-0.156-3.029c-0.43-1.105-1.861-0.723-2.402,0.031
		c0-1.041,0-2.082,0-3.123C19.577,18.779,19.141,18.779,18.703,18.779z M25.445,21.154c-1.174,0.062-1.762,0.884-1.842,1.998
		c-0.063,0.896-0.08,2.371,0,3.466c0.08,1.104,0.646,1.851,1.562,1.999c1.586,0.253,2.643-0.827,2.372-2.594
		c-0.447,0-0.896,0-1.343,0c-0.002,0.615,0.068,1.16-0.312,1.344c-1.07,0.518-1.064-1.251-0.938-2.217
		c0.865-0.021,1.812,0.041,2.623-0.031C27.672,22.964,27.549,21.04,25.445,21.154z M13.737,21.342c0,1.1,0,2.374,0,3.746
		c0,1.105-0.214,2.98,0.376,3.403c0.765,0.549,1.747-0.326,2.091-0.687c0.019,0.241-0.037,0.557,0.032,0.75c0.437,0,0.874,0,1.311,0
		c0-2.438,0-4.873,0-7.309c-0.446,0-0.896,0-1.343,0c0,1.863,0,3.727,0,5.59c-0.223,0.201-0.452,0.754-0.937,0.594
		c-0.292-0.098-0.188-0.928-0.188-1.406c0-1.625,0-3.402,0-4.776c-0.437,0-0.874,0-1.311,0
		C13.733,21.253,13.735,21.297,13.737,21.342z"/>
	<path fill="#FFFFFF" d="M20.016,27.117c0-1.469,0-2.936,0-4.402c0.254-0.312,0.67-0.513,0.998-0.25
		c0.385,0.309,0.219,1.668,0.219,2.529c0,0.904,0.154,2.195-0.312,2.404C20.525,27.573,20.253,27.312,20.016,27.117z"/>
	<path fill="#FFFFFF" d="M26.229,24.025c-0.438,0-0.875,0-1.312,0c-0.094-0.892,0.077-1.971,0.938-1.623
		C26.311,22.589,26.219,23.332,26.229,24.025z"/>
</g>
<rect width="36.5" height="36.5"/>
<path fill="#FFFFFF" d="M29.34,6.604c-0.008,1.319-0.043,2.609-0.099,3.88c-1.499,0.193-3.55-0.469-4.175,0.593
	c-0.281,0.475-0.23,1.262-0.23,2.005c0,0.737,0,1.524,0,2.236c1.447,0.076,3.035,0.011,4.537,0.033
	c-0.066,1.432-0.127,2.827-0.197,4.176c-1.436,0-2.871,0-4.307,0c-0.076,3.791-0.012,7.725-0.033,11.572c-1.459,0-2.916,0-4.373,0
	c0.008-3.865-0.059-7.658-0.031-11.541c-0.955-0.076-2.051-0.012-3.059-0.031c0-1.395,0-2.785,0-4.176c1.008,0,2.016,0,3.023,0
	c0.039-2.613-0.142-4.791,0.756-6.347c0.856-1.483,2.459-2.437,4.637-2.564C27.041,6.367,28.202,6.491,29.34,6.604z"/>
<rect width="36.5" height="36.5"/>
<path fill="#FFFFFF" d="M31.199,17.61c-0.678,0.724-1.663,1.138-3.045,1.156c-0.645,2.313-1.887,4.146-3.58,5.504
	c-1.665,1.334-3.842,2.289-6.332,2.732c-2.813,0.501-5.787,0.105-7.861-0.748c-2.154-0.887-3.833-2.232-5.079-3.988
	c1.231,0.902,2.857,1.771,4.98,1.661c1.946-0.102,3.312-0.888,4.395-1.872c0.057-0.052,0.16-0.145,0.147-0.195
	c-0.795-0.045-1.487-0.219-1.71-0.799c-0.259-0.676,0.368-1.125,0.732-1.365c0.015-0.01,0.115-0.01,0.065-0.066
	c-1.256,0.016-2.25-0.436-2.814-1.221c-0.079-0.108-0.207-0.275-0.196-0.374c0.018-0.187,0.521-0.442,0.684-0.505
	c0.318-0.121,0.64-0.14,0.96-0.212c-1.361-0.418-2.48-1.079-2.784-2.556c0.386-0.189,0.929-0.222,1.465-0.26
	c-0.861-0.607-1.815-1.323-2.05-2.652c-0.028-0.164-0.104-0.385,0.016-0.555c0.424,0.078,0.81,0.284,1.204,0.439
	c2.561,1.01,5.086,2.013,7,3.695c0.07,0.061,0.146,0.129,0.212,0.196c0.051,0.05,0.1,0.163,0.196,0.146
	c0.788-2.404,1.872-4.553,3.612-6.039c0.107-0.092,0.225-0.238,0.391-0.211c0.021,0.209-0.115,0.404-0.195,0.569
	c0.061,0.006,0.117-0.046,0.164-0.081c0.393-0.298,0.867-0.613,1.447-0.733c0.062,0,0.119,0,0.18,0c0,0.006,0,0.012,0,0.018
	c0.027-0.005,0.027,0.014,0.05,0.015c0.026,0.196-0.142,0.336-0.261,0.441c-0.133,0.114-0.305,0.198-0.424,0.308
	c0.451-0.116,0.857-0.331,1.465-0.342c0.154-0.002,0.42,0.007,0.44,0.164c0.021,0.163-0.282,0.356-0.392,0.423
	c-0.512,0.307-1.166,0.452-1.774,0.634c2.45,0.14,3.999,1.317,4.867,3.045c0.294,0.585,0.513,1.22,0.668,1.953
	c0.854,0.259,2.235,0.221,3.026-0.017c-0.301,0.975-1.602,1.127-2.652,1.384c0.143,0.103,0.382,0.137,0.602,0.179
	c0.623,0.12,1.416,0.159,2.183,0.114C31.199,17.601,31.199,17.605,31.199,17.61z"/>
</svg>
