<?xml version="1.0" encoding="utf-8"?>
<!-- Generator: Adobe Illustrator 15.0.0, SVG Export Plug-In . SVG Version: 6.00 Build 0)  -->
<!DOCTYPE svg PUBLIC "-//W3C//DTD SVG 1.1//EN" "http://www.w3.org/Graphics/SVG/1.1/DTD/svg11.dtd">
<svg version="1.1" id="Layer_1" xmlns="http://www.w3.org/2000/svg" xmlns:xlink="http://www.w3.org/1999/xlink" x="0px" y="0px"
	 width="36.5px" height="36.5px" viewBox="0 0 36.5 36.5" enable-background="new 0 0 36.5 36.5" xml:space="preserve">
<rect width="36.5" height="36.5"/>
<g>
	<path fill="#FFFFFF" d="M6.947,15.322c-0.498-0.357-0.826-0.887-1.148-1.42c1.102-0.828,1.986-1.764,3.107-2.771
		c0.973-0.869,3.086-2.883,5.004-1.893c1.672,0.861,1.752,3.643,2.164,5.949c0.156,0.877,0.346,2.137,0.676,3.381
		c0.236,0.891,0.736,2.562,1.42,2.637c0.832,0.092,1.625-1.381,2.164-2.232c0.619-0.977,1.299-2.039,1.486-2.906
		c0.475-2.199-1.068-2.895-3.043-2.027c0.75-2.787,2.309-4.975,5.207-5.273c3.307-0.342,4.99,1.645,4.328,5.273
		c-0.324,1.768-1.111,3.195-1.961,4.596c-1.484,2.447-3.617,5.224-5.746,7.234c-1.135,1.069-3.208,2.774-5.208,2.299
		c-2.271-0.539-2.984-4.219-3.65-6.625c-0.348-1.254-0.646-2.617-1.082-4.057c-0.33-1.094-0.943-3.09-1.895-3.178
		C7.949,14.232,7.576,15.037,6.947,15.322z"/>
</g>
</svg>
